<svg width="18" height="16" viewBox="0 0 18 16" fill="none" xmlns="http://www.w3.org/2000/svg">
<g clip-path="url(#clip0_63_623)">
<path d="M3.06399 2.59748C2.53399 2.59748 2.09799 3.03448 2.09799 3.56448V12.8445C2.09799 13.3745 2.53399 13.8105 3.06399 13.8105H15.437C15.967 13.8105 16.404 13.3745 16.404 12.8445V3.56448C16.404 3.03448 15.967 2.59748 15.437 2.59748H3.06399ZM0.937988 3.56448C0.937988 2.39348 1.89299 1.43848 3.06399 1.43848H15.437C16.608 1.43848 17.564 2.39348 17.564 3.56448V12.8445C17.564 14.0155 16.608 14.9705 15.437 14.9705H3.06399C1.89299 14.9705 0.937988 14.0155 0.937988 12.8445V3.56448Z" fill="#A7AAB4"/>
<path d="M1.04207 3.23241C1.22607 2.96941 1.58807 2.90541 1.85007 3.08941L9.25107 8.26941L16.6511 3.08941C16.9131 2.90541 17.2751 2.96941 17.4591 3.23241C17.6421 3.49441 17.5791 3.85641 17.3161 4.03941L9.58307 9.45241C9.38307 9.59241 9.11807 9.59241 8.91807 9.45241L1.18507 4.03941C0.923071 3.85641 0.859071 3.49441 1.04207 3.23241Z" fill="#A7AAB4"/>
</g>
<defs>
<clipPath id="clip0_63_623">
<rect width="20" height="16" fill="white" transform="translate(-1)"/>
</clipPath>
</defs>
</svg>
