<svg width="14" height="13" viewBox="0 0 14 13" fill="none" xmlns="http://www.w3.org/2000/svg">
<path d="M7.33333 10.1867V8.66667H11.3333C12.0667 8.66667 12.6667 8.06667 12.6667 7.33333V1.33333C12.6667 0.6 12.0667 0 11.3333 0H2C1.26667 0 0.666667 0.6 0.666667 1.33333V7.33333C0.666667 8.06667 1.26667 8.66667 2 8.66667H6V10.1867C5.8 10.3 5.63333 10.4667 5.52 10.6667H0V12H5.52C5.75333 12.3933 6.17333 12.6667 6.66667 12.6667C7.16 12.6667 7.58 12.3933 7.81333 12H13.3333V10.6667H7.81333C7.7 10.4667 7.53333 10.3 7.33333 10.1867ZM2 7.33333V1.33333H11.3333V7.33333H2Z" fill="#A7AAB4"/>
</svg>
