<svg width="20" height="13" viewBox="0 0 20 13" fill="none" xmlns="http://www.w3.org/2000/svg">
<g clip-path="url(#clip0_190_231)">
<g clip-path="url(#clip1_190_231)">
<path d="M5.866 0.730055C6.381 0.730055 6.896 0.776055 7.386 0.869055C7.803 0.962055 8.195 1.12405 8.563 1.35705C8.882 1.58905 9.151 1.89105 9.323 2.23905C9.519 2.68005 9.617 3.14505 9.593 3.60905C9.617 4.12005 9.47 4.63105 9.2 5.07205C8.906 5.49106 8.489 5.81605 8.024 6.02505C8.686 6.18706 9.249 6.58205 9.617 7.09305C9.985 7.65005 10.156 8.30105 10.156 8.95105C10.156 9.48505 10.059 9.99605 9.813 10.4611C9.593 10.8791 9.274 11.2271 8.906 11.5291C8.514 11.8081 8.048 12.0171 7.582 12.1331C7.092 12.2721 6.577 12.3191 6.062 12.3191H0.375V0.706055H5.866V0.730055ZM5.523 5.42105C5.915 5.44405 6.332 5.32805 6.651 5.09606C6.969 4.84005 7.141 4.44505 7.092 4.02705C7.092 3.79505 7.043 3.56306 6.945 3.35405C6.847 3.19105 6.724 3.05205 6.553 2.95905C6.381 2.86606 6.185 2.77305 5.989 2.75005C5.768 2.70405 5.547 2.70405 5.327 2.70405H2.924V5.42105H5.523ZM5.67 10.3911C5.915 10.3911 6.16 10.3681 6.381 10.3211C6.602 10.2751 6.798 10.1821 6.994 10.0661C7.166 9.95005 7.313 9.78705 7.411 9.60105C7.533 9.36905 7.582 9.11405 7.558 8.85805C7.607 8.37005 7.411 7.90605 7.043 7.58105C6.651 7.30205 6.185 7.18606 5.695 7.20905H2.924V10.4141H5.67V10.3911Z" fill="#A7AAB4"/>
<path d="M13.7839 10.3444C14.2009 10.6934 14.7409 10.8784 15.2799 10.8554C15.7209 10.8554 16.1379 10.7394 16.4809 10.5074C16.7759 10.3214 16.9719 10.0664 17.0939 9.76436H19.1289C18.9079 10.6234 18.3689 11.3894 17.6339 11.9234C16.9229 12.3884 16.0639 12.5974 15.1819 12.5744C14.5689 12.5744 13.9559 12.4814 13.3679 12.2494C12.8529 12.0404 12.3869 11.7384 12.0189 11.3434C11.6519 10.9254 11.3569 10.4604 11.1609 9.94936C10.9409 9.36936 10.8419 8.76536 10.8669 8.16136C10.8669 7.55736 10.9649 6.97736 11.1859 6.39636C11.7739 4.77036 13.3919 3.67936 15.2059 3.70236C15.8679 3.67936 16.5059 3.84136 17.0939 4.12036C17.6089 4.39936 18.0749 4.77036 18.4179 5.23536C18.7609 5.72336 19.0309 6.25736 19.1539 6.83736C19.3009 7.44136 19.3499 8.09136 19.3249 8.71836H13.2449C13.1719 9.29936 13.3679 9.88036 13.7839 10.3444ZM16.4319 5.90836C16.0889 5.58336 15.6229 5.42136 15.1329 5.44436C14.8139 5.44436 14.4949 5.49036 14.2259 5.63036C14.0049 5.74636 13.8089 5.90836 13.6369 6.09436C13.4899 6.28036 13.3919 6.46636 13.3189 6.69836C13.2699 6.88436 13.2209 7.07036 13.2209 7.25536H16.9959C16.9469 6.76836 16.7509 6.30336 16.4319 5.90836Z" fill="#A7AAB4"/>
<path d="M17.437 1.49609H12.73V2.63409H17.437V1.49609Z" fill="#A7AAB4"/>
</g>
</g>
<defs>
<clipPath id="clip0_190_231">
<rect width="20" height="13" fill="white"/>
</clipPath>
<clipPath id="clip1_190_231">
<rect width="20" height="13" fill="white"/>
</clipPath>
</defs>
</svg>
