<svg width="20" height="18" viewBox="0 0 20 18" fill="none" xmlns="http://www.w3.org/2000/svg">
<g clip-path="url(#clip0_190_260)">
<g clip-path="url(#clip1_190_260)">
<path d="M11.318 9.125C11.318 12.232 8.784 14.75 5.659 14.75C2.534 14.75 0 12.232 0 9.125C0 6.019 2.534 3.5 5.659 3.5C8.784 3.5 11.318 6.019 11.318 9.125Z" fill="#A7AAB4"/>
<path d="M17.364 9.12548C17.364 12.0585 16.115 14.4385 14.573 14.4385C13.032 14.4385 11.783 12.0585 11.783 9.12548C11.783 6.19248 13.032 3.81348 14.573 3.81348C16.115 3.81348 17.364 6.19148 17.364 9.12548Z" fill="#A7AAB4"/>
<path d="M20 9.047C20 11.764 19.549 13.969 18.992 13.969C18.436 13.969 17.985 11.765 17.985 9.047C17.985 6.329 18.436 4.125 18.992 4.125C19.549 4.125 20 6.329 20 9.047Z" fill="#A7AAB4"/>
</g>
</g>
<defs>
<clipPath id="clip0_190_260">
<rect width="20" height="12" fill="white" transform="translate(0 3)"/>
</clipPath>
<clipPath id="clip1_190_260">
<rect width="20" height="12" fill="white" transform="translate(0 3)"/>
</clipPath>
</defs>
</svg>
