<svg width="24" height="24" viewBox="0 0 24 24" fill="none" xmlns="http://www.w3.org/2000/svg">
<path d="M21.55 3.68961C21.27 3.50961 20.91 3.47961 20.6 3.60961C18.1 4.68961 15.52 3.88961 12.79 3.04961C9.83 2.13961 6.77 1.19961 3.6 2.56961C3.23 2.72961 3 3.08961 3 3.48961V22.0096H5V15.1996C7.31 14.4696 9.69 15.1996 12.21 15.9696C14.1 16.5496 16.02 17.1396 17.99 17.1396C19.11 17.1396 20.25 16.9496 21.4 16.4496C21.77 16.2896 22 15.9296 22 15.5296V4.51961C22 4.17961 21.83 3.86961 21.55 3.67961V3.68961ZM16.22 14.9496C16.37 14.9696 16.51 14.9996 16.66 15.0196C16.51 14.9996 16.37 14.9796 16.22 14.9496ZM20.01 8.86961C19.01 9.13961 18.01 9.17961 17.01 9.0696V12.0696C18.01 12.1696 19.01 12.1296 20.01 11.8696V14.8296C19.03 15.1396 18.03 15.1696 17.01 15.0596V12.0796C16.01 11.9796 15.01 11.7396 14.01 11.4596V14.4196C13.61 14.2996 13.21 14.1796 12.8 14.0596C12.21 13.8796 11.61 13.6996 11.01 13.5296V10.5596C10.01 10.2796 9.01 10.0396 8.01 9.9396V12.9396C8.06 12.9396 8.11 12.9596 8.16 12.9596C7.78 12.9196 7.4 12.8796 7.02 12.8796C6.35 12.8796 5.68 12.9496 5.01 13.1096V10.1396C6.01 9.86961 7.01 9.8296 8.01 9.9396V6.93961C7.01 6.83961 6.01 6.87961 5.01 7.13961V4.17961C5.99 3.86961 6.99 3.83961 8.01 3.94961V6.92961C9.01 7.0296 10.01 7.26961 11.01 7.54961V4.58961C11.41 4.70961 11.81 4.82961 12.22 4.9496C12.81 5.12961 13.41 5.31961 14.01 5.47961V8.4396C15.01 8.7196 16.01 8.95961 17.01 9.05961V6.06961C18 6.15961 19 6.1296 20.01 5.88961V8.8596V8.86961Z" fill="url(#paint0_linear_206_85)"/>
<path d="M11 7.5498V10.5498C12 10.8298 13 11.1698 14 11.4498V8.4498C13 8.1698 12 7.8298 11 7.5498Z" fill="url(#paint1_linear_206_85)"/>
<defs>
<linearGradient id="paint0_linear_206_85" x1="12.5" y1="1.87891" x2="12.5" y2="22.0096" gradientUnits="userSpaceOnUse">
<stop stop-color="white"/>
<stop offset="1" stop-color="#646464"/>
</linearGradient>
<linearGradient id="paint1_linear_206_85" x1="12.5" y1="7.5498" x2="12.5" y2="11.4498" gradientUnits="userSpaceOnUse">
<stop stop-color="white"/>
<stop offset="1" stop-color="#646464"/>
</linearGradient>
</defs>
</svg>
