<svg width="20" height="22" viewBox="0 0 20 22" fill="none" xmlns="http://www.w3.org/2000/svg">
<path d="M5 0C2.43 0 0 3.4 0 7C0 9.76 0.79 12.47 1 13.16V15C1 16.65 2.35 18 4 18C5.65 18 7 16.65 7 15V13C7 11.69 7.45 10.57 7.93 9.37C8.46 8.05 9 6.69 9 5C9 2.52 7.62 0 5 0ZM5 15C5 15.55 4.55 16 4 16C3.45 16 3 15.55 3 15V13H5V15ZM6.07 8.63C5.77 9.38 5.47 10.16 5.26 11H2.49C2.24 9.92 1.99 8.45 1.99 7C1.99 4.42 3.68 2 4.99 2C6.57 2 6.99 3.96 6.99 5C6.99 6.31 6.54 7.43 6.06 8.63H6.07ZM15 4C12.38 4 11 6.52 11 9C11 10.69 11.54 12.05 12.07 13.37C12.55 14.56 13 15.69 13 17V19C13 20.65 14.35 22 16 22C17.65 22 19 20.65 19 19V17.16C19.21 16.48 20 13.76 20 11C20 7.4 17.57 4 15 4ZM17 19C17 19.55 16.55 20 16 20C15.45 20 15 19.55 15 19V17H17V19ZM17.5 15H14.73C14.52 14.16 14.23 13.38 13.92 12.63C13.44 11.44 12.99 10.31 12.99 9C12.99 7.96 13.41 6 14.99 6C16.3 6 17.99 8.42 17.99 11C17.99 12.45 17.74 13.92 17.49 15H17.5Z" fill="url(#paint0_linear_189_133)"/>
<defs>
<linearGradient id="paint0_linear_189_133" x1="10" y1="-10.5" x2="10" y2="23" gradientUnits="userSpaceOnUse">
<stop stop-color="white"/>
<stop offset="1" stop-color="#464646"/>
</linearGradient>
</defs>
</svg>
