<svg width="18" height="18" viewBox="0 0 18 18" fill="none" xmlns="http://www.w3.org/2000/svg">
<g clip-path="url(#clip0_190_246)">
<g clip-path="url(#clip1_190_246)">
<path d="M9 1C4.584 1 1 4.584 1 9C1 13.416 4.584 17 9 17C13.408 17 17 13.416 17 9C17 4.584 13.408 1 9 1ZM14.284 4.688C15.239 5.85 15.811 7.334 15.829 8.939C15.603 8.896 13.347 8.436 11.074 8.722C11.022 8.61 10.978 8.488 10.926 8.367C10.787 8.037 10.631 7.698 10.475 7.377C12.991 6.354 14.137 4.879 14.284 4.688ZM9 2.18C10.735 2.18 12.323 2.831 13.529 3.898C13.408 4.072 12.375 5.451 9.946 6.362C8.826 4.306 7.586 2.623 7.395 2.362C7.907 2.241 8.445 2.18 9 2.18ZM6.093 2.822C6.275 3.065 7.49 4.757 8.627 6.77C5.434 7.62 2.614 7.603 2.31 7.603C2.753 5.486 4.184 3.725 6.093 2.822ZM2.163 9.009C2.163 8.939 2.163 8.87 2.163 8.8C2.458 8.809 5.772 8.852 9.182 7.829C9.382 8.21 9.564 8.601 9.738 8.991C9.651 9.017 9.555 9.043 9.469 9.069C5.946 10.206 4.072 13.312 3.915 13.573C2.831 12.367 2.163 10.761 2.163 9.009ZM9 15.837C7.421 15.837 5.963 15.299 4.809 14.397C4.931 14.145 6.319 11.473 10.171 10.128C10.189 10.119 10.197 10.119 10.215 10.111C11.178 12.601 11.568 14.692 11.672 15.291C10.848 15.646 9.946 15.837 9 15.837ZM12.809 14.666C12.74 14.25 12.375 12.254 11.482 9.798C13.625 9.46 15.499 10.015 15.733 10.093C15.438 11.994 14.345 13.633 12.809 14.666Z" fill="#A7AAB4"/>
</g>
</g>
<defs>
<clipPath id="clip0_190_246">
<rect width="16" height="16" fill="white" transform="translate(1 1)"/>
</clipPath>
<clipPath id="clip1_190_246">
<rect width="16" height="16" fill="white" transform="translate(1 1)"/>
</clipPath>
</defs>
</svg>
