<svg width="24" height="24" viewBox="0 0 24 24" fill="none" xmlns="http://www.w3.org/2000/svg">
<path d="M12 2C6.49 2 2 6.49 2 12C2 17.51 6.49 22 12 22C17.51 22 22 17.51 22 12C22 6.49 17.51 2 12 2ZM12 20C7.59 20 4 16.41 4 12C4 7.59 7.59 4 12 4C16.41 4 20 7.59 20 12C20 16.41 16.41 20 12 20Z" fill="url(#paint0_linear_207_1346)"/>
<path d="M12.28 8.82012L12 9.10012L11.72 8.82012C10.63 7.72012 8.91 7.72012 7.81 8.82012C7.28642 9.34404 6.99231 10.0544 6.99231 10.7951C6.99231 11.5358 7.28642 12.2462 7.81 12.7701L11.99 17.0001L16.17 12.7701C16.6936 12.2462 16.9877 11.5358 16.9877 10.7951C16.9877 10.0544 16.6936 9.34404 16.17 8.82012C15.9157 8.55916 15.6116 8.35177 15.2759 8.21016C14.9401 8.06856 14.5794 7.9956 14.215 7.9956C13.8506 7.9956 13.4899 8.06856 13.1541 8.21016C12.8184 8.35177 12.5143 8.55916 12.26 8.82012H12.28Z" fill="url(#paint1_linear_207_1346)"/>
<defs>
<linearGradient id="paint0_linear_207_1346" x1="12" y1="2" x2="12" y2="22" gradientUnits="userSpaceOnUse">
<stop stop-color="white"/>
<stop offset="1" stop-color="#464646"/>
</linearGradient>
<linearGradient id="paint1_linear_207_1346" x1="11.99" y1="7.99512" x2="11.99" y2="17.0001" gradientUnits="userSpaceOnUse">
<stop stop-color="white"/>
<stop offset="1" stop-color="#464646"/>
</linearGradient>
</defs>
</svg>
