<svg width="12" height="14" viewBox="0 0 12 14" fill="none" xmlns="http://www.w3.org/2000/svg">
<path d="M6.47334 0.194963C6.41167 0.13316 6.33841 0.0841286 6.25776 0.0506743C6.17711 0.01722 6.09066 0 6.00335 0C5.91603 0 5.82958 0.01722 5.74893 0.0506743C5.66828 0.0841286 5.59502 0.13316 5.53335 0.194963L0.193344 5.5283C0.131557 5.59059 0.0826734 5.66447 0.049497 5.74569C0.0163206 5.82692 -0.000496119 5.91389 1.11429e-05 6.00163V12.0016C1.11429e-05 12.735 0.600011 13.335 1.33334 13.335H4.00001C4.36668 13.335 4.66668 13.035 4.66668 12.6683V8.6683H7.33334V12.6683C7.33334 13.035 7.63335 13.335 8.00001 13.335H10.6667C11.4 13.335 12 12.735 12 12.0016V6.00163C12 5.82163 11.9267 5.65496 11.8067 5.5283L6.47334 0.194963ZM8.66668 12.0016V8.6683C8.66668 7.93496 8.06668 7.33496 7.33334 7.33496H4.66668C3.93334 7.33496 3.33334 7.93496 3.33334 8.6683V12.0016H1.33334V6.27496L6.00001 1.6083L10.6667 6.27496V12.0016H8.66668Z" fill="#A7AAB4"/>
</svg>
