<svg width="15" height="15" viewBox="0 0 15 15" fill="none" xmlns="http://www.w3.org/2000/svg">
<g clip-path="url(#clip0_190_240)">
<g clip-path="url(#clip1_190_240)">
<path d="M12.781 12.7811H10.558V9.3001C10.558 8.4701 10.543 7.4021 9.402 7.4021C8.245 7.4021 8.068 8.3061 8.068 9.2401V12.7811H5.845V5.6231H7.979V6.6011H8.009C8.222 6.2361 8.531 5.9361 8.901 5.7321C9.272 5.5291 9.691 5.4291 10.114 5.4451C12.366 5.4451 12.782 6.9271 12.782 8.8541L12.781 12.7811ZM3.337 4.6451C3.082 4.6451 2.833 4.5691 2.621 4.4271C2.409 4.2861 2.243 4.0841 2.146 3.8491C2.048 3.6131 2.022 3.3541 2.072 3.1031C2.122 2.8531 2.245 2.6231 2.425 2.4431C2.605 2.2631 2.835 2.1401 3.085 2.0901C3.335 2.0401 3.595 2.0661 3.83 2.1631C4.066 2.2611 4.268 2.4261 4.409 2.6381C4.551 2.8501 4.627 3.1001 4.627 3.3551C4.627 3.5241 4.593 3.6921 4.529 3.8481C4.464 4.0051 4.369 4.1471 4.249 4.2671C4.129 4.3861 3.987 4.4821 3.831 4.5461C3.674 4.6111 3.507 4.6451 3.337 4.6451ZM4.449 12.7811H2.224V5.6231H4.449V12.7811ZM13.889 0.00110358H1.107C0.817 -0.00189642 0.537 0.110104 0.33 0.313104C0.122 0.515104 0.004 0.792104 0 1.0821V13.9181C0.003 14.2081 0.122 14.4851 0.329 14.6881C0.537 14.8911 0.817 15.0031 1.107 15.0001H13.889C14.18 15.0041 14.46 14.8921 14.668 14.6891C14.877 14.4861 14.996 14.2081 15 13.9181V1.0811C14.996 0.791104 14.877 0.513104 14.668 0.311104C14.46 0.108104 14.179 -0.00389642 13.889 0.000103577" fill="#A7AAB4"/>
</g>
</g>
<defs>
<clipPath id="clip0_190_240">
<rect width="15" height="15" fill="white"/>
</clipPath>
<clipPath id="clip1_190_240">
<rect width="15" height="15" fill="white"/>
</clipPath>
</defs>
</svg>
