<svg width="16" height="16" viewBox="0 0 16 16" fill="none" xmlns="http://www.w3.org/2000/svg">
<path d="M8.00004 1.33301C4.32671 1.33301 1.33337 4.32634 1.33337 7.99967C1.33337 11.673 4.32671 14.6663 8.00004 14.6663C11.6734 14.6663 14.6667 11.673 14.6667 7.99967C14.6667 4.32634 11.6734 1.33301 8.00004 1.33301ZM8.00004 13.333C5.06004 13.333 2.66671 10.9397 2.66671 7.99967C2.66671 5.05967 5.06004 2.66634 8.00004 2.66634C10.94 2.66634 13.3334 5.05967 13.3334 7.99967C13.3334 10.9397 10.94 13.333 8.00004 13.333Z" fill="#A7AAB4"/>
<path d="M8.18662 5.88008L7.99996 6.06675L7.81329 5.88008C7.08662 5.14674 5.93996 5.14674 5.20662 5.88008C4.85757 6.22936 4.6615 6.70295 4.6615 7.19675C4.6615 7.69054 4.85757 8.16413 5.20662 8.51341L7.99329 11.3334L10.78 8.51341C11.129 8.16413 11.3251 7.69054 11.3251 7.19675C11.3251 6.70295 11.129 6.22936 10.78 5.88008C10.6104 5.70611 10.4077 5.56785 10.1839 5.47344C9.96003 5.37904 9.71956 5.3304 9.47662 5.3304C9.23369 5.3304 8.99321 5.37904 8.76937 5.47344C8.54553 5.56785 8.34285 5.70611 8.17329 5.88008H8.18662Z" fill="#A7AAB4"/>
</svg>
