<svg width="14" height="16" viewBox="0 0 14 16" fill="none" xmlns="http://www.w3.org/2000/svg">
<g clip-path="url(#clip0_190_277)">
<g clip-path="url(#clip1_190_277)">
<path d="M4.91099 0.072063L12.537 2.24506C13.59 2.54506 14.214 3.69506 13.932 4.81506L11.506 14.4441C11.224 15.5631 10.142 16.2281 9.08899 15.9281L1.46299 13.7551C0.409994 13.4551 -0.214006 12.3051 0.0679938 11.1851L2.49399 1.55606C2.77599 0.436063 3.85799 -0.227937 4.91099 0.072063ZM4.65599 1.08606C4.12899 0.936063 3.58799 1.26806 3.44699 1.82806L1.02099 11.4571C0.879994 12.0161 1.19199 12.5921 1.71899 12.7421L9.34399 14.9141C9.87099 15.0641 10.412 14.7321 10.553 14.1721L12.979 4.54306C13.12 3.98406 12.808 3.40806 12.281 3.25806L4.65599 1.08606Z" fill="#A7AAB4"/>
<path d="M4.494 3.75523C4.564 3.47523 4.835 3.30923 5.098 3.38423L10.817 5.01423C11.081 5.08923 11.237 5.37723 11.166 5.65623C11.096 5.93623 10.825 6.10223 10.562 6.02723L4.843 4.39823C4.58 4.32323 4.423 4.03523 4.494 3.75523Z" fill="#A7AAB4"/>
<path d="M3.85499 6.28941C3.92599 6.00941 4.19699 5.84341 4.45999 5.91841L10.179 7.54841C10.442 7.62341 10.598 7.91041 10.528 8.19041C10.457 8.47041 10.187 8.63641 9.92299 8.56141L4.20399 6.93241C3.94099 6.85741 3.78499 6.56941 3.85499 6.28941Z" fill="#A7AAB4"/>
<path d="M3.21703 8.82261C3.28803 8.54261 3.55803 8.37661 3.82103 8.45161L7.15703 9.40261C7.42103 9.47761 7.57703 9.76461 7.50603 10.0446C7.43603 10.3246 7.16503 10.4906 6.90203 10.4156L3.56603 9.46561C3.30303 9.39061 3.14603 9.10261 3.21703 8.82261Z" fill="#A7AAB4"/>
</g>
</g>
<defs>
<clipPath id="clip0_190_277">
<rect width="14" height="16" fill="white"/>
</clipPath>
<clipPath id="clip1_190_277">
<rect width="14" height="16" fill="white"/>
</clipPath>
</defs>
</svg>
