<svg width="24" height="24" viewBox="0 0 24 24" fill="none" xmlns="http://www.w3.org/2000/svg">
<path d="M12.0002 4C11.4698 4 10.9611 4.21071 10.586 4.58579C10.2109 4.96086 10.0002 5.46957 10.0002 6C10.0002 6.53043 10.2109 7.03914 10.586 7.41421C10.9611 7.78929 11.4698 8 12.0002 8C12.5307 8 13.0394 7.78929 13.4144 7.41421C13.7895 7.03914 14.0002 6.53043 14.0002 6C14.0002 5.46957 13.7895 4.96086 13.4144 4.58579C13.0394 4.21071 12.5307 4 12.0002 4ZM5.00023 7C4.4698 7 3.96109 7.21071 3.58602 7.58579C3.21095 7.96086 3.00023 8.46957 3.00023 9C3.00023 9.53043 3.21095 10.0391 3.58602 10.4142C3.96109 10.7893 4.4698 11 5.00023 11C5.53067 11 6.03937 10.7893 6.41445 10.4142C6.78952 10.0391 7.00023 9.53043 7.00023 9C7.00023 8.46957 6.78952 7.96086 6.41445 7.58579C6.03937 7.21071 5.53067 7 5.00023 7ZM19.0002 7C18.4698 7 17.9611 7.21071 17.586 7.58579C17.2109 7.96086 17.0002 8.46957 17.0002 9C17.0002 9.53043 17.2109 10.0391 17.586 10.4142C17.9611 10.7893 18.4698 11 19.0002 11C19.5307 11 20.0394 10.7893 20.4144 10.4142C20.7895 10.0391 21.0002 9.53043 21.0002 9C21.0002 8.46957 20.7895 7.96086 20.4144 7.58579C20.0394 7.21071 19.5307 7 19.0002 7ZM19.5002 12H18.8002C17.9602 12 17.1902 12.42 16.7202 13.11L13.4602 18H10.5302L7.27023 13.11C6.81023 12.41 6.03023 12 5.19023 12H4.49023C3.82719 12 3.19131 12.2634 2.72247 12.7322C2.25363 13.2011 1.99023 13.837 1.99023 14.5V20H6.99023V16.3L8.86023 19.11C9.23023 19.67 9.85023 20 10.5202 20H13.4502C14.1202 20 14.7402 19.67 15.1102 19.11L16.9802 16.3V20H21.9802V14.5C21.9802 13.837 21.7168 13.2011 21.248 12.7322C20.7792 12.2634 20.1433 12 19.4802 12H19.5002Z" fill="url(#paint0_linear_189_134)"/>
<path d="M12.39 16L15 12.09V10.5C15 9.67 14.33 9 13.5 9H10.5C9.67 9 9 9.67 9 10.5V12.09L11.61 16H12.4H12.39Z" fill="url(#paint1_linear_189_134)"/>
<defs>
<linearGradient id="paint0_linear_189_134" x1="11.9852" y1="4" x2="11.9852" y2="20" gradientUnits="userSpaceOnUse">
<stop stop-color="white"/>
<stop offset="1" stop-color="#464646"/>
</linearGradient>
<linearGradient id="paint1_linear_189_134" x1="12" y1="6" x2="12" y2="18" gradientUnits="userSpaceOnUse">
<stop stop-color="white"/>
<stop offset="1" stop-color="#464646"/>
</linearGradient>
</defs>
</svg>
