<svg width="24" height="24" viewBox="0 0 24 24" fill="none" xmlns="http://www.w3.org/2000/svg">
<path d="M16.7103 3.85736L15.3103 5.25736L7.33033 3.92736C7.01033 3.87736 6.69033 3.97736 6.46033 4.20736L4.69033 5.97736C4.46033 6.20736 4.36033 6.53736 4.41033 6.85736C4.46033 7.17736 4.67033 7.44736 4.97033 7.58736L10.4103 10.1674L8.92033 11.6574L5.50033 11.3474C5.21033 11.3174 4.91033 11.4274 4.70033 11.6374L3.29033 13.0474C3.1743 13.1633 3.08888 13.3062 3.04175 13.4633C2.99462 13.6204 2.98726 13.7867 3.02033 13.9474C3.08033 14.2774 3.30033 14.5474 3.61033 14.6774L8.19033 16.6374L10.1503 21.2174C10.2803 21.5274 10.5503 21.7474 10.8803 21.8074C11.041 21.8395 11.2071 21.8317 11.364 21.7847C11.521 21.7376 11.6639 21.6526 11.7803 21.5374L13.1903 20.1274C13.4003 19.9174 13.5103 19.6274 13.4803 19.3274L13.1703 15.9074L14.6603 14.4174L17.2303 19.8574C17.2977 20.0033 17.3994 20.1307 17.5268 20.2287C17.6542 20.3266 17.8035 20.3922 17.9619 20.4197C18.1202 20.4473 18.2829 20.436 18.4359 20.3868C18.5889 20.3376 18.7277 20.252 18.8403 20.1374L20.6103 18.3674C20.8403 18.1374 20.9403 17.8174 20.8903 17.4974L19.5603 9.51736L20.9603 8.11736C21.5303 7.54736 21.8403 6.79736 21.8403 5.99736C21.8403 5.19736 21.5303 4.44736 20.9603 3.87736C20.3978 3.31556 19.6353 3 18.8403 3C18.0453 3 17.2828 3.31556 16.7203 3.87736L16.7103 3.85736ZM19.5403 6.68736L17.7703 8.45736C17.5403 8.68736 17.4403 9.00736 17.4903 9.32736L18.8203 17.3074L18.4203 17.7074L15.8503 12.2774C15.783 12.1314 15.6813 12.004 15.5538 11.906C15.4264 11.8081 15.2771 11.7425 15.1188 11.715C14.9604 11.6875 14.7978 11.6988 14.6448 11.7479C14.4918 11.7971 14.353 11.8827 14.2403 11.9974L11.4103 14.8274C11.3056 14.9308 11.2252 15.0562 11.175 15.1946C11.1248 15.333 11.1062 15.4808 11.1203 15.6274L11.4303 19.0474L11.3903 19.0874L9.85033 15.4974C9.75033 15.2574 9.56033 15.0774 9.33033 14.9674L5.74033 13.4274L5.78033 13.3874L9.20033 13.6974C9.50033 13.7274 9.79033 13.6174 10.0003 13.4074L12.8303 10.5774C13.0603 10.3474 13.1603 10.0174 13.1103 9.69736C13.0603 9.37736 12.8503 9.10736 12.5503 8.96736L7.11033 6.38736L7.51033 5.98736L15.4903 7.31736C15.8103 7.36736 16.1303 7.26736 16.3603 7.03736L18.1303 5.26736C18.27 5.12781 18.448 5.03292 18.6416 4.99472C18.8353 4.95652 19.036 4.97675 19.2182 5.05284C19.4004 5.12892 19.5558 5.25743 19.6648 5.42204C19.7738 5.58665 19.8314 5.77994 19.8303 5.97736C19.8303 6.24736 19.7303 6.49736 19.5403 6.68736Z" fill="url(#paint0_linear_189_130)"/>
<defs>
<linearGradient id="paint0_linear_189_130" x1="12.4102" y1="-3.09277" x2="12.4102" y2="25.4072" gradientUnits="userSpaceOnUse">
<stop stop-color="white"/>
<stop offset="1" stop-color="#464646"/>
</linearGradient>
</defs>
</svg>
