<svg width="21" height="20" viewBox="0 0 21 20" fill="none" xmlns="http://www.w3.org/2000/svg">
<path d="M18.375 3.375H15V2.625C15 1.9288 14.7234 1.2611 14.2312 0.768801C13.7389 0.276601 13.0712 0 12.375 0H7.875C7.1788 0 6.5111 0.276601 6.0188 0.768801C5.5266 1.2611 5.25 1.9288 5.25 2.625V3.375H1.875C1.3777 3.375 0.9008 3.5725 0.5492 3.9242C0.1975 4.2758 0 4.7527 0 5.25V17.25C0 17.7473 0.1975 18.2242 0.5492 18.5758C0.9008 18.9275 1.3777 19.125 1.875 19.125H18.375C18.8723 19.125 19.3492 18.9275 19.7008 18.5758C20.0525 18.2242 20.25 17.7473 20.25 17.25V5.25C20.25 4.7527 20.0525 4.2758 19.7008 3.9242C19.3492 3.5725 18.8723 3.375 18.375 3.375ZM7.5 2.625C7.5 2.5255 7.5395 2.4302 7.6098 2.3598C7.6802 2.2895 7.7755 2.25 7.875 2.25H12.375C12.4745 2.25 12.5698 2.2895 12.6402 2.3598C12.7105 2.4302 12.75 2.5255 12.75 2.625V3.375H7.5V2.625ZM18 5.625V11.625H2.25V5.625H18ZM2.25 16.875V13.875H18V16.875H2.25Z" fill="#787878"/>
</svg>
