<svg width="16" height="16" viewBox="0 0 16 16" fill="none" xmlns="http://www.w3.org/2000/svg">
<path d="M12.6667 2H3.33333C2.6 2 2 2.6 2 3.33333V12.6667C2 13.4 2.6 14 3.33333 14H12.6667C13.4 14 14 13.4 14 12.6667V3.33333C14 2.6 13.4 2 12.6667 2ZM3.33333 12.6667V3.33333H12.6667V12.6667H3.33333Z" fill="#A7AAB4"/>
<path d="M5.66663 7.00033C5.40141 7.00033 5.14706 7.10568 4.95952 7.29322C4.77198 7.48075 4.66663 7.73511 4.66663 8.00033C4.66663 8.26554 4.77198 8.5199 4.95952 8.70743C5.14706 8.89497 5.40141 9.00033 5.66663 9.00033C5.93184 9.00033 6.1862 8.89497 6.37373 8.70743C6.56127 8.5199 6.66663 8.26554 6.66663 8.00033C6.66663 7.73511 6.56127 7.48075 6.37373 7.29322C6.1862 7.10568 5.93184 7.00033 5.66663 7.00033ZM7.33329 7.33366H11.3333V8.66699H7.33329V7.33366ZM4.66663 4.66699H11.3333V6.00033H4.66663V4.66699ZM4.66663 10.0003H11.3333V11.3337H4.66663V10.0003Z" fill="#A7AAB4"/>
</svg>
