<svg width="15" height="15" viewBox="0 0 15 15" fill="none" xmlns="http://www.w3.org/2000/svg">
<path d="M7.3125 0C5.86623 0 4.45243 0.428871 3.2499 1.23238C2.04736 2.03589 1.1101 3.17794 0.556634 4.51413C0.00316839 5.85031 -0.141643 7.32061 0.140511 8.7391C0.422665 10.1576 1.11911 11.4605 2.14178 12.4832C3.16446 13.5059 4.46742 14.2023 5.88591 14.4845C7.30439 14.7666 8.77469 14.6218 10.1109 14.0684C11.4471 13.5149 12.5891 12.5776 13.3926 11.3751C14.1961 10.1726 14.625 8.75878 14.625 7.3125C14.623 5.37373 13.8519 3.51496 12.481 2.14404C11.11 0.773127 9.25127 0.00204737 7.3125 0ZM7.3125 13.5C6.08873 13.5 4.89244 13.1371 3.87491 12.4572C2.85738 11.7773 2.06432 10.811 1.596 9.68035C1.12768 8.54974 1.00515 7.30564 1.24389 6.10538C1.48264 4.90512 2.07194 3.80261 2.93728 2.93728C3.80262 2.07194 4.90512 1.48264 6.10538 1.24389C7.30564 1.00514 8.54974 1.12768 9.68036 1.596C10.811 2.06431 11.7773 2.85738 12.4572 3.87491C13.1371 4.89244 13.5 6.08873 13.5 7.3125C13.4981 8.95296 12.8456 10.5257 11.6857 11.6857C10.5257 12.8456 8.95296 13.4981 7.3125 13.5ZM10.523 6.91453C10.5753 6.96677 10.6168 7.02881 10.6451 7.0971C10.6734 7.16538 10.6879 7.23858 10.6879 7.3125C10.6879 7.38642 10.6734 7.45962 10.6451 7.5279C10.6168 7.59619 10.5753 7.65823 10.523 7.71047L8.27297 9.96047C8.16742 10.066 8.02427 10.1253 7.875 10.1253C7.72574 10.1253 7.58258 10.066 7.47703 9.96047C7.37149 9.85492 7.31219 9.71177 7.31219 9.5625C7.31219 9.41323 7.37149 9.27008 7.47703 9.16453L8.76727 7.875H4.5C4.35082 7.875 4.20775 7.81574 4.10226 7.71025C3.99677 7.60476 3.9375 7.46168 3.9375 7.3125C3.9375 7.16332 3.99677 7.02024 4.10226 6.91475C4.20775 6.80926 4.35082 6.75 4.5 6.75H8.76727L7.47703 5.46047C7.37149 5.35492 7.31219 5.21177 7.31219 5.0625C7.31219 4.91323 7.37149 4.77008 7.47703 4.66453C7.58258 4.55898 7.72574 4.49969 7.875 4.49969C8.02427 4.49969 8.16742 4.55898 8.27297 4.66453L10.523 6.91453Z" fill="white"/>
</svg>
