<svg width="21" height="20" viewBox="0 0 21 20" fill="none" xmlns="http://www.w3.org/2000/svg">
<path d="M17.18 7H13.16C12.84 7 12.55 6.86 12.36 6.6C12.2661 6.47617 12.2028 6.33198 12.175 6.1791C12.1472 6.02622 12.1557 5.86895 12.2 5.72L12.74 3.82C13 2.91 12.82 1.95 12.25 1.19C11.68 0.43 10.81 0 9.85 0H8.5C8.05 0 7.66 0.3 7.54 0.73L6.39 4.74C6.18654 5.45897 5.78528 6.10637 5.23191 6.60846C4.67854 7.11056 3.99531 7.44718 3.26 7.58L0.82 8.02C0.34 8.11 0 8.52 0 9V18C0 18.55 0.45 19 1 19H3.42C4.36 19 5.29 19.15 6.19 19.45C7.29 19.82 8.43 20 9.59 20H15.18C16.74 20 18.01 18.73 18.01 17.17C18.01 16.71 17.9 16.27 17.7 15.89C18.2928 15.5118 18.7237 14.9265 18.9085 14.2481C19.0934 13.5696 19.0191 12.8466 18.7 12.22C19.49 11.72 20.01 10.83 20.01 9.83C20.01 8.27 18.74 7 17.18 7ZM17.18 10.67H16.01C15.46 10.67 15.01 11.12 15.01 11.67C15.01 12.22 15.46 12.67 16.01 12.67H16.18C16.64 12.67 17.01 13.04 17.01 13.5C17.01 13.96 16.64 14.33 16.18 14.33H15.01C14.46 14.33 14.01 14.78 14.01 15.33C14.01 15.88 14.46 16.33 15.01 16.33H15.18C15.64 16.33 16.01 16.7 16.01 17.16C16.01 17.62 15.64 17.99 15.18 17.99H9.59C8.65 17.99 7.72 17.84 6.82 17.54C5.72 17.17 4.58 16.99 3.42 16.99H2V9.82L3.62 9.53C4.72287 9.33298 5.74822 8.83011 6.57919 8.0787C7.41017 7.32728 8.01335 6.35755 8.32 5.28L9.26 1.99H9.85C10.17 1.99 10.46 2.13 10.65 2.39C10.84 2.64 10.9 2.96 10.81 3.27L10.27 5.17C10.01 6.08 10.19 7.04 10.76 7.8C11.33 8.56 12.2 8.99 13.16 8.99H17.18C17.64 8.99 18.01 9.36 18.01 9.82C18.01 10.28 17.64 10.65 17.18 10.65V10.67Z" fill="url(#paint0_linear_207_1345)"/>
<defs>
<linearGradient id="paint0_linear_207_1345" x1="10.005" y1="0" x2="10.005" y2="20" gradientUnits="userSpaceOnUse">
<stop stop-color="white"/>
<stop offset="1" stop-color="#646464"/>
</linearGradient>
</defs>
</svg>
