<svg width="16" height="16" viewBox="0 0 16 16" fill="none" xmlns="http://www.w3.org/2000/svg">
<path d="M14.4 3.2H12V1.6C12 0.72 11.28 0 10.4 0H5.6C4.72 0 4 0.72 4 1.6V3.2H1.6C0.72 3.2 0 3.92 0 4.8V14.4C0 15.28 0.72 16 1.6 16H14.4C15.28 16 16 15.28 16 14.4V4.8C16 3.92 15.28 3.2 14.4 3.2ZM5.6 1.6H10.4V3.2H5.6V1.6ZM4.8 4.8H14.4V7.256L13.736 7.568C11.9426 8.41559 9.98362 8.85519 8 8.85519C6.01638 8.85519 4.05741 8.41559 2.264 7.568L1.6 7.256V4.8H4.8ZM1.6 14.4V9.024C3.632 9.976 5.816 10.456 8 10.456C10.184 10.456 12.368 9.976 14.4 9.024V14.4H1.6Z" fill="white"/>
</svg>
