<svg width="253" height="280" viewBox="0 0 253 280" fill="none" xmlns="http://www.w3.org/2000/svg">
<g filter="url(#filter0_i_304_872)">
<g clip-path="url(#clip0_304_872)">
<rect width="253" height="280" rx="12" fill="#202020"/>
<g filter="url(#filter1_g_304_872)">
<rect width="253" height="280" fill="black" fill-opacity="0.01"/>
</g>
<path d="M127.934 188.682C174.362 188.682 212 151.044 212 104.616C212 58.1874 174.362 20.5498 127.934 20.5498C81.5058 20.5498 43.8682 58.1874 43.8682 104.616C43.8682 151.044 81.5058 188.682 127.934 188.682Z" fill="url(#paint0_radial_304_872)"/>
<path opacity="0.05" d="M127.934 184.945C172.299 184.945 208.264 148.981 208.264 104.616C208.264 60.2509 172.299 24.2861 127.934 24.2861C83.5691 24.2861 47.6042 60.2509 47.6042 104.616C47.6042 148.981 83.5691 184.945 127.934 184.945Z" stroke="#E8E4DD" stroke-width="0.124542"/>
<path opacity="0.03" d="M127.934 180.586C169.892 180.586 203.905 146.573 203.905 104.615C203.905 62.6578 169.892 28.6445 127.934 28.6445C85.9766 28.6445 51.9634 62.6578 51.9634 104.615C51.9634 146.573 85.9766 180.586 127.934 180.586Z" stroke="#E8E4DD" stroke-width="0.0934066"/>
<path opacity="0.1" d="M127.934 127.967C165.765 127.967 196.432 117.512 196.432 104.615C196.432 91.7186 165.765 81.2637 127.934 81.2637C90.1037 81.2637 59.436 91.7186 59.436 104.615C59.436 117.512 90.1037 127.967 127.934 127.967Z" stroke="#E8E4DD" stroke-width="0.186813"/>
<path opacity="0.16" d="M107.711 116.292C126.626 149.054 151.014 170.386 162.183 163.937C173.352 157.489 167.073 125.702 148.157 92.9403C129.242 60.1781 104.854 38.8466 93.6851 45.295C82.5162 51.7433 88.7958 83.5298 107.711 116.292Z" stroke="#C8A96E" stroke-width="0.155678"/>
<path opacity="0.07" d="M107.711 92.9392C88.7957 125.701 82.5161 157.488 93.685 163.936C104.854 170.385 129.242 149.053 148.157 116.291C167.072 83.5287 173.352 51.7423 162.183 45.2939C151.014 38.8455 126.626 60.1771 107.711 92.9392Z" stroke="#E8E4DD" stroke-width="0.124542"/>
<path opacity="0.13" d="M127.934 121.74C155.447 121.74 177.751 114.073 177.751 104.616C177.751 95.1581 155.447 87.4912 127.934 87.4912C100.421 87.4912 78.1172 95.1581 78.1172 104.616C78.1172 114.073 100.421 121.74 127.934 121.74Z" stroke="#E8E4DD" stroke-width="0.217949"/>
<path opacity="0.22" d="M115.825 116.724C135.28 136.179 156.472 146.528 163.16 139.841C169.847 133.153 159.497 111.961 140.043 92.5061C120.588 73.0514 99.3956 62.7016 92.708 69.3891C86.0205 76.0767 96.3703 97.2692 115.825 116.724Z" stroke="#C8A96E" stroke-width="0.186813"/>
<path opacity="0.08" d="M110.81 104.615C110.81 132.128 118.476 154.432 127.934 154.432C137.392 154.432 145.059 132.128 145.059 104.615C145.059 77.1016 137.392 54.7979 127.934 54.7979C118.476 54.7979 110.81 77.1016 110.81 104.615Z" stroke="#E8E4DD" stroke-width="0.124542"/>
<path opacity="0.05" d="M115.825 92.5061C96.3705 111.961 86.0207 133.153 92.7083 139.841C99.3958 146.528 120.588 136.179 140.043 116.724C159.498 97.2692 169.847 76.0767 163.16 69.3892C156.472 62.7016 135.28 73.0514 115.825 92.5061Z" stroke="#E8E4DD" stroke-width="0.0934066"/>
<path opacity="0.18" d="M127.934 115.825C145.13 115.825 159.07 110.806 159.07 104.616C159.07 98.4256 145.13 93.4072 127.934 93.4072C110.738 93.4072 96.7986 98.4256 96.7986 104.616C96.7986 110.806 110.738 115.825 127.934 115.825Z" stroke="#E8E4DD" stroke-width="0.249084"/>
<path opacity="0.32" d="M118.227 110.22C126.825 125.112 138.141 134.675 143.502 131.58C148.863 128.484 146.239 113.903 137.641 99.011C129.043 84.1191 117.727 74.556 112.366 77.6513C107.005 80.7465 109.629 95.3279 118.227 110.22Z" stroke="#C8A96E" stroke-width="0.217949"/>
<path opacity="0.12" d="M118.227 99.0112C109.629 113.903 107.005 128.485 112.366 131.58C117.727 134.675 129.043 125.112 137.641 110.22C146.239 95.3281 148.863 80.7467 143.502 77.6515C138.141 74.5562 126.825 84.1193 118.227 99.0112Z" stroke="#E8E4DD" stroke-width="0.155678"/>
<path opacity="0.06" d="M127.934 22.1064V187.125" stroke="#E8E4DD" stroke-width="0.0934066"/>
<path opacity="0.05" d="M43.8682 104.615H212" stroke="#E8E4DD" stroke-width="0.0934066"/>
<path opacity="0.22" d="M127.934 104.615L68.7766 56.0439" stroke="#C8A96E" stroke-width="0.186813"/>
<path opacity="0.12" d="M127.934 104.615L186.469 60.4023" stroke="#E8E4DD" stroke-width="0.124542"/>
<path opacity="0.18" d="M127.934 104.615L194.875 145.091" stroke="#C8A96E" stroke-width="0.155678"/>
<path opacity="0.1" d="M127.934 104.615L58.1904 152.564" stroke="#E8E4DD" stroke-width="0.124542"/>
<path opacity="0.08" d="M127.934 104.616L112.366 24.2861" stroke="#E8E4DD" stroke-width="0.0934066"/>
<path opacity="0.15" d="M127.934 104.615L158.447 182.454" stroke="#C8A96E" stroke-width="0.124542"/>
<path opacity="0.88" d="M87.9102 49.2405L62.7403 57.4186C62.3314 57.5515 62.1077 57.9906 62.2405 58.3995L67.7247 75.2781C67.8576 75.687 68.2967 75.9107 68.7056 75.7779L93.8755 67.5997C94.2843 67.4668 94.5081 67.0277 94.3752 66.6188L88.891 49.7402C88.7582 49.3314 88.319 49.1076 87.9102 49.2405Z" fill="#111111" stroke="#E8E4DD" stroke-width="0.186813"/>
<path opacity="0.32" d="M87.9102 49.2405L62.7403 57.4186C62.3314 57.5515 62.1077 57.9906 62.2405 58.3995L67.7247 75.2781C67.8576 75.687 68.2967 75.9107 68.7056 75.7779L93.8755 67.5997C94.2843 67.4668 94.5081 67.0277 94.3752 66.6188L88.891 49.7402C88.7582 49.3314 88.319 49.1076 87.9102 49.2405Z" stroke="#C8A96E" stroke-width="0.155678"/>
<path opacity="0.04" d="M86.8071 51.8906L65.1906 58.9143C64.9453 58.994 64.8111 59.2575 64.8908 59.5028L69.2204 72.828C69.3001 73.0733 69.5636 73.2076 69.8089 73.1279L91.4254 66.1042C91.6707 66.0245 91.805 65.761 91.7253 65.5157L87.3956 52.1905C87.3159 51.9452 87.0524 51.8109 86.8071 51.8906Z" fill="#E8E4DD"/>
<path opacity="0.1" d="M66.3818 64.0928L88.8867 56.7805" stroke="#E8E4DD" stroke-width="0.124542"/>
<path opacity="0.07" d="M67.4403 67.3506L86.6879 61.0967" stroke="#E8E4DD" stroke-width="0.0934066"/>
<path opacity="0.88" d="M197.104 58.5908L171.425 52.1883C171.008 52.0843 170.586 52.3381 170.482 52.7553L166.188 69.9753C166.084 70.3925 166.338 70.8149 166.755 70.9189L192.434 77.3214C192.851 77.4254 193.274 77.1716 193.378 76.7545L197.671 59.5344C197.775 59.1173 197.521 58.6948 197.104 58.5908Z" fill="#111111" stroke="#E8E4DD" stroke-width="0.186813"/>
<path opacity="0.28" d="M197.104 58.5908L171.425 52.1883C171.008 52.0843 170.586 52.3381 170.482 52.7553L166.188 69.9753C166.084 70.3925 166.338 70.8149 166.755 70.9189L192.434 77.3214C192.851 77.4254 193.274 77.1716 193.378 76.7545L197.671 59.5344C197.775 59.1173 197.521 58.6948 197.104 58.5908Z" stroke="#C8A96E" stroke-width="0.155678"/>
<path opacity="0.04" d="M194.765 60.2552L172.711 54.7565C172.461 54.6941 172.207 54.8464 172.145 55.0967L168.755 68.6915C168.693 68.9418 168.845 69.1953 169.095 69.2577L191.149 74.7563C191.399 74.8187 191.653 74.6664 191.715 74.4161L195.105 60.8213C195.167 60.571 195.015 60.3176 194.765 60.2552Z" fill="#E8E4DD"/>
<path opacity="0.09" d="M180.868 56.7903L172.711 54.7565C172.461 54.6941 172.207 54.8464 172.145 55.0967L168.755 68.6915C168.693 68.9418 168.845 69.1953 169.095 69.2577L177.252 71.2914C177.502 71.3538 177.756 71.2015 177.818 70.9512L181.208 57.3564C181.27 57.1062 181.118 56.8527 180.868 56.7903Z" fill="#C8A96E"/>
<path opacity="0.88" d="M208.933 121.792L182.725 118.108C182.299 118.049 181.906 118.345 181.846 118.771L179.376 136.345C179.316 136.771 179.613 137.165 180.038 137.224L206.246 140.908C206.672 140.968 207.065 140.671 207.125 140.245L209.595 122.671C209.655 122.245 209.358 121.851 208.933 121.792Z" fill="#111111" stroke="#E8E4DD" stroke-width="0.186813"/>
<path opacity="0.36" d="M208.933 121.792L182.725 118.108C182.299 118.049 181.906 118.345 181.846 118.771L179.376 136.345C179.316 136.771 179.613 137.165 180.038 137.224L206.246 140.908C206.672 140.968 207.065 140.671 207.125 140.245L209.595 122.671C209.655 122.245 209.358 121.851 208.933 121.792Z" stroke="#C8A96E" stroke-width="0.155678"/>
<path opacity="0.04" d="M206.779 123.69L184.271 120.527C184.016 120.491 183.78 120.669 183.744 120.924L181.794 134.799C181.758 135.054 181.936 135.291 182.191 135.327L204.699 138.49C204.955 138.526 205.191 138.348 205.227 138.092L207.177 124.218C207.212 123.962 207.034 123.726 206.779 123.69Z" fill="#E8E4DD"/>
<path opacity="0.22" d="M182.899 126.937L206.332 130.23" stroke="#C8A96E" stroke-width="0.186813"/>
<path opacity="0.82" d="M94.2598 121.291L69.7217 131.205C69.3231 131.367 69.1305 131.82 69.2916 132.219L75.9398 148.674C76.1009 149.072 76.5545 149.265 76.9531 149.104L101.491 139.19C101.89 139.029 102.082 138.575 101.921 138.177L95.2731 121.722C95.1121 121.323 94.6584 121.13 94.2598 121.291Z" fill="#111111" stroke="#E8E4DD" stroke-width="0.186813"/>
<path opacity="0.14" d="M94.2598 121.291L69.7217 131.205C69.3231 131.367 69.1305 131.82 69.2916 132.219L75.9398 148.674C76.1009 149.072 76.5545 149.265 76.9531 149.104L101.491 139.19C101.89 139.029 102.082 138.575 101.921 138.177L95.2731 121.722C95.1121 121.323 94.6584 121.13 94.2598 121.291Z" stroke="#E8E4DD" stroke-width="0.0934066"/>
<path opacity="0.03" d="M93.3443 124.012L72.2704 132.526C72.0313 132.623 71.9157 132.895 72.0124 133.134L77.261 146.125C77.3576 146.364 77.6298 146.48 77.8689 146.383L98.9428 137.869C99.182 137.772 99.2975 137.5 99.2009 137.261L93.9523 124.27C93.8557 124.031 93.5835 123.915 93.3443 124.012Z" fill="#E8E4DD"/>
<path opacity="0.78" d="M128.7 27.3792L109.754 26.0543C109.325 26.0243 108.953 26.3476 108.923 26.7765L108.054 39.2004C108.024 39.6292 108.348 40.0012 108.776 40.0312L127.723 41.356C128.152 41.386 128.524 41.0627 128.554 40.6338L129.422 28.2099C129.452 27.7811 129.129 27.4091 128.7 27.3792Z" fill="#111111" stroke="#E8E4DD" stroke-width="0.186813"/>
<path opacity="0.04" d="M126.685 29.423L111.465 28.3588C111.208 28.3408 110.985 28.5348 110.967 28.7921L110.359 37.4888C110.341 37.7461 110.535 37.9693 110.792 37.9873L126.011 39.0515C126.269 39.0695 126.492 38.8755 126.51 38.6182L127.118 29.9215C127.136 29.6642 126.942 29.441 126.685 29.423Z" fill="#E8E4DD"/>
<path opacity="0.8" d="M173.054 164.81L149.687 152.385C149.307 152.183 148.836 152.327 148.634 152.707L142.056 165.078C141.854 165.457 141.998 165.929 142.378 166.13L165.745 178.555C166.125 178.757 166.596 178.613 166.798 178.233L173.376 165.862C173.578 165.483 173.434 165.011 173.054 164.81Z" fill="#111111" stroke="#E8E4DD" stroke-width="0.186813"/>
<path opacity="0.28" d="M173.054 164.81L149.687 152.385C149.307 152.183 148.836 152.327 148.634 152.707L142.056 165.078C141.854 165.457 141.998 165.929 142.378 166.13L165.745 178.555C166.125 178.757 166.596 178.613 166.798 178.233L173.376 165.862C173.578 165.483 173.434 165.011 173.054 164.81Z" stroke="#C8A96E" stroke-width="0.124542"/>
<path opacity="0.07" d="M170.381 165.857L150.313 155.186C150.085 155.065 149.802 155.151 149.681 155.379L144.858 164.451C144.736 164.679 144.823 164.962 145.051 165.083L165.119 175.753C165.347 175.875 165.63 175.788 165.751 175.56L170.574 166.488C170.696 166.261 170.609 165.978 170.381 165.857Z" fill="#C8A96E"/>
<path opacity="0.12" d="M127.934 118.315C135.5 118.315 141.634 112.182 141.634 104.616C141.634 97.0495 135.5 90.916 127.934 90.916C120.368 90.916 114.234 97.0495 114.234 104.616C114.234 112.182 120.368 118.315 127.934 118.315Z" stroke="#C8A96E" stroke-width="0.124542"/>
<path opacity="0.2" d="M127.934 112.399C132.233 112.399 135.718 108.914 135.718 104.615C135.718 100.316 132.233 96.8311 127.934 96.8311C123.635 96.8311 120.15 100.316 120.15 104.615C120.15 108.914 123.635 112.399 127.934 112.399Z" stroke="#C8A96E" stroke-width="0.186813"/>
<path opacity="0.7" d="M127.934 105.705C128.536 105.705 129.024 105.217 129.024 104.615C129.024 104.013 128.536 103.525 127.934 103.525C127.332 103.525 126.844 104.013 126.844 104.615C126.844 105.217 127.332 105.705 127.934 105.705Z" fill="#C8A96E"/>
<path d="M127.934 105.114C128.209 105.114 128.432 104.89 128.432 104.615C128.432 104.34 128.209 104.117 127.934 104.117C127.659 104.117 127.436 104.34 127.436 104.615C127.436 104.89 127.659 105.114 127.934 105.114Z" fill="#C8A96E"/>
<path opacity="0.3" d="M127.934 21.1721V18.0586" stroke="#C8A96E" stroke-width="0.217949"/>
<path opacity="0.3" d="M45.1136 104.615H42" stroke="#C8A96E" stroke-width="0.217949"/>
<path d="M127.934 188.682C174.362 188.682 212 151.044 212 104.616C212 58.1874 174.362 20.5498 127.934 20.5498C81.5058 20.5498 43.8682 58.1874 43.8682 104.616C43.8682 151.044 81.5058 188.682 127.934 188.682Z" fill="url(#paint1_radial_304_872)"/>
<path d="M127 410C276.117 410 397 289.117 397 140C397 -9.11688 276.117 -130 127 -130C-22.1169 -130 -143 -9.11688 -143 140C-143 289.117 -22.1169 410 127 410Z" fill="url(#paint2_radial_304_872)"/>
<path d="M32.5107 237.54C33.1081 237.54 33.6774 237.643 34.2187 237.848C34.7601 238.053 35.2267 238.343 35.6187 238.716C36.0294 239.089 36.3561 239.528 36.5987 240.032C36.8414 240.536 36.9627 241.096 36.9627 241.712L36.9347 243.98H34.3027L34.3307 241.712C34.3307 241.227 34.1627 240.844 33.8267 240.564C33.4907 240.265 33.0521 240.116 32.5107 240.116C32.0627 240.116 31.6707 240.265 31.3347 240.564C30.9987 240.844 30.8307 241.227 30.8307 241.712V252.688C30.8307 253.173 30.9987 253.565 31.3347 253.864C31.6707 254.163 32.0627 254.312 32.5107 254.312C33.0521 254.312 33.4907 254.163 33.8267 253.864C34.1814 253.565 34.3587 253.173 34.3587 252.688V249.664H32.0627V247.032H36.9627V252.688C36.9627 253.304 36.8414 253.873 36.5987 254.396C36.3561 254.9 36.0294 255.339 35.6187 255.712C35.2267 256.085 34.7601 256.375 34.2187 256.58C33.6774 256.785 33.1081 256.888 32.5107 256.888C31.9134 256.888 31.3534 256.785 30.8307 256.58C30.3081 256.375 29.8414 256.085 29.4307 255.712C29.0387 255.339 28.7214 254.9 28.4787 254.396C28.2547 253.873 28.1427 253.304 28.1427 252.688V241.712C28.1427 241.096 28.2547 240.536 28.4787 240.032C28.7214 239.528 29.0387 239.089 29.4307 238.716C29.8414 238.343 30.3081 238.053 30.8307 237.848C31.3534 237.643 31.9134 237.54 32.5107 237.54ZM46.8955 237.596V240.256H42.1355V245.66H46.1955V248.404H42.1355V254.256H46.8955V256.888H39.4755V237.596H46.8955ZM56.8482 252.772C56.8482 253.463 56.7269 254.069 56.4842 254.592C56.2415 255.096 55.9149 255.525 55.5042 255.88C55.0935 256.216 54.6082 256.468 54.0482 256.636C53.5069 256.804 52.9375 256.888 52.3402 256.888C51.7429 256.888 51.1735 256.785 50.6322 256.58C50.1095 256.375 49.6429 256.095 49.2322 255.74C48.8215 255.367 48.4949 254.928 48.2522 254.424C48.0282 253.92 47.9162 253.369 47.9162 252.772V241.796C47.9162 241.199 48.0282 240.648 48.2522 240.144C48.4949 239.621 48.8215 239.173 49.2322 238.8C49.6429 238.427 50.1095 238.137 50.6322 237.932C51.1735 237.727 51.7429 237.624 52.3402 237.624C52.9375 237.624 53.5069 237.727 54.0482 237.932C54.6082 238.137 55.0935 238.427 55.5042 238.8C55.9149 239.173 56.2415 239.621 56.4842 240.144C56.7269 240.648 56.8482 241.199 56.8482 241.796V252.772ZM54.1042 241.796C54.1042 241.311 53.9362 240.919 53.6002 240.62C53.2642 240.321 52.8442 240.172 52.3402 240.172C51.8735 240.172 51.4815 240.321 51.1642 240.62C50.8469 240.919 50.6882 241.311 50.6882 241.796V252.772C50.6882 253.22 50.8469 253.593 51.1642 253.892C51.4815 254.172 51.8735 254.312 52.3402 254.312C52.8442 254.312 53.2642 254.172 53.6002 253.892C53.9362 253.593 54.1042 253.22 54.1042 252.772V241.796ZM68.1672 237.596L71.5272 237.624V256.888H68.8952V247.172L66.7392 256.888H64.6112L62.3152 247.172V256.888H59.6552V237.624H62.7912L65.6472 250.196L68.1672 237.596ZM82.1963 237.596V240.256H77.4363V245.66H81.4963V248.404H77.4363V254.256H82.1963V256.888H74.7763V237.596H82.1963ZM86.5748 240.34H83.8588V237.624H91.6148V240.34H89.1788V256.888H86.5748V240.34ZM97.8214 237.624C98.4 237.624 98.932 237.717 99.4174 237.904C99.9214 238.091 100.351 238.371 100.705 238.744C101.079 239.099 101.368 239.537 101.573 240.06C101.779 240.583 101.881 241.171 101.881 241.824V245.24C101.881 246.248 101.704 247.088 101.349 247.76C100.995 248.413 100.463 248.871 99.7534 249.132L101.797 256.44L101.909 256.888H99.1094L96.9254 249.3H96.0854V256.888H93.3974V237.624H97.8214ZM99.1654 241.824C99.1654 241.357 99.0254 240.965 98.7454 240.648C98.4654 240.312 98.1667 240.144 97.8494 240.144H96.0854V246.724H98.2414C98.5587 246.724 98.792 246.593 98.9414 246.332C99.0907 246.071 99.1654 245.707 99.1654 245.24V241.824ZM110.277 237.624H113.133L109.073 248.992V256.888H106.385V248.992L102.297 237.624H105.181L107.757 244.792L110.277 237.624ZM126.274 252.772C126.274 253.463 126.153 254.069 125.91 254.592C125.667 255.096 125.341 255.525 124.93 255.88C124.519 256.216 124.034 256.468 123.474 256.636C122.933 256.804 122.363 256.888 121.766 256.888C121.169 256.888 120.599 256.785 120.058 256.58C119.535 256.375 119.069 256.095 118.658 255.74C118.247 255.367 117.921 254.928 117.678 254.424C117.454 253.92 117.342 253.369 117.342 252.772V241.796C117.342 241.199 117.454 240.648 117.678 240.144C117.921 239.621 118.247 239.173 118.658 238.8C119.069 238.427 119.535 238.137 120.058 237.932C120.599 237.727 121.169 237.624 121.766 237.624C122.363 237.624 122.933 237.727 123.474 237.932C124.034 238.137 124.519 238.427 124.93 238.8C125.341 239.173 125.667 239.621 125.91 240.144C126.153 240.648 126.274 241.199 126.274 241.796V252.772ZM123.53 241.796C123.53 241.311 123.362 240.919 123.026 240.62C122.69 240.321 122.27 240.172 121.766 240.172C121.299 240.172 120.907 240.321 120.59 240.62C120.273 240.919 120.114 241.311 120.114 241.796V252.772C120.114 253.22 120.273 253.593 120.59 253.892C120.907 254.172 121.299 254.312 121.766 254.312C122.27 254.312 122.69 254.172 123.026 253.892C123.362 253.593 123.53 253.22 123.53 252.772V241.796ZM131.713 256.888H129.053V237.624H135.941V240.48H131.713V246.136H135.773V248.936H131.713V256.888ZM149.816 237.596L153.176 237.624V256.888H150.544V247.172L148.388 256.888H146.26L143.964 247.172V256.888H141.304V237.624H144.44L147.296 250.196L149.816 237.596ZM163.845 237.596V240.256H159.085V245.66H163.145V248.404H159.085V254.256H163.845V256.888H156.425V237.596H163.845ZM174.288 237.596L177.648 237.624V256.888H175.016V247.172L172.86 256.888H170.732L168.436 247.172V256.888H165.776V237.624H168.912L171.768 250.196L174.288 237.596ZM189.465 252.772C189.465 253.463 189.344 254.069 189.101 254.592C188.859 255.096 188.532 255.525 188.121 255.88C187.711 256.216 187.225 256.468 186.665 256.636C186.124 256.804 185.555 256.888 184.957 256.888C184.36 256.888 183.791 256.785 183.249 256.58C182.727 256.375 182.26 256.095 181.849 255.74C181.439 255.367 181.112 254.928 180.869 254.424C180.645 253.92 180.533 253.369 180.533 252.772V241.796C180.533 241.199 180.645 240.648 180.869 240.144C181.112 239.621 181.439 239.173 181.849 238.8C182.26 238.427 182.727 238.137 183.249 237.932C183.791 237.727 184.36 237.624 184.957 237.624C185.555 237.624 186.124 237.727 186.665 237.932C187.225 238.137 187.711 238.427 188.121 238.8C188.532 239.173 188.859 239.621 189.101 240.144C189.344 240.648 189.465 241.199 189.465 241.796V252.772ZM186.721 241.796C186.721 241.311 186.553 240.919 186.217 240.62C185.881 240.321 185.461 240.172 184.957 240.172C184.491 240.172 184.099 240.321 183.781 240.62C183.464 240.919 183.305 241.311 183.305 241.796V252.772C183.305 253.22 183.464 253.593 183.781 253.892C184.099 254.172 184.491 254.312 184.957 254.312C185.461 254.312 185.881 254.172 186.217 253.892C186.553 253.593 186.721 253.22 186.721 252.772V241.796ZM196.696 237.624C197.275 237.624 197.807 237.717 198.292 237.904C198.796 238.091 199.226 238.371 199.58 238.744C199.954 239.099 200.243 239.537 200.448 240.06C200.654 240.583 200.756 241.171 200.756 241.824V245.24C200.756 246.248 200.579 247.088 200.224 247.76C199.87 248.413 199.338 248.871 198.628 249.132L200.672 256.44L200.784 256.888H197.984L195.8 249.3H194.96V256.888H192.272V237.624H196.696ZM198.04 241.824C198.04 241.357 197.9 240.965 197.62 240.648C197.34 240.312 197.042 240.144 196.724 240.144H194.96V246.724H197.116C197.434 246.724 197.667 246.593 197.816 246.332C197.966 246.071 198.04 245.707 198.04 245.24V241.824ZM205.736 256.888H202.936V237.624H205.736V256.888ZM216.263 237.596V240.256H211.503V245.66H215.563V248.404H211.503V254.256H216.263V256.888H208.843V237.596H216.263ZM221.289 237.624C221.887 237.624 222.447 237.727 222.969 237.932C223.511 238.137 223.977 238.427 224.369 238.8C224.78 239.155 225.097 239.584 225.321 240.088C225.564 240.592 225.685 241.143 225.685 241.74V243.504H222.997V241.74C222.997 241.217 222.839 240.825 222.521 240.564C222.204 240.284 221.793 240.144 221.289 240.144C220.823 240.144 220.431 240.284 220.113 240.564C219.815 240.825 219.665 241.217 219.665 241.74V243.868C219.665 244.111 219.703 244.353 219.777 244.596C219.871 244.839 219.992 245.063 220.141 245.268C220.291 245.455 220.459 245.613 220.645 245.744C220.851 245.856 221.065 245.912 221.289 245.912C221.887 245.912 222.447 246.033 222.969 246.276C223.511 246.5 223.977 246.817 224.369 247.228C224.78 247.62 225.097 248.087 225.321 248.628C225.564 249.151 225.685 249.711 225.685 250.308V252.8C225.685 253.397 225.564 253.948 225.321 254.452C225.097 254.956 224.78 255.395 224.369 255.768C223.977 256.123 223.511 256.403 222.969 256.608C222.447 256.795 221.887 256.888 221.289 256.888C220.692 256.888 220.123 256.795 219.581 256.608C219.059 256.403 218.601 256.123 218.209 255.768C217.817 255.395 217.5 254.956 217.257 254.452C217.033 253.948 216.921 253.397 216.921 252.8V251.316H219.721V252.8C219.721 253.248 219.861 253.612 220.141 253.892C220.44 254.172 220.823 254.312 221.289 254.312C221.793 254.312 222.195 254.172 222.493 253.892C222.792 253.612 222.941 253.248 222.941 252.8V250.644C222.941 250.401 222.895 250.159 222.801 249.916C222.727 249.655 222.615 249.421 222.465 249.216C222.335 249.011 222.167 248.843 221.961 248.712C221.756 248.581 221.532 248.516 221.289 248.516C220.692 248.516 220.123 248.385 219.581 248.124C219.059 247.863 218.601 247.517 218.209 247.088C217.817 246.659 217.5 246.164 217.257 245.604C217.033 245.044 216.921 244.465 216.921 243.868V241.74C216.921 241.143 217.033 240.592 217.257 240.088C217.5 239.584 217.817 239.155 218.209 238.8C218.601 238.427 219.059 238.137 219.581 237.932C220.123 237.727 220.692 237.624 221.289 237.624Z" fill="#E8E4DD"/>
<path d="M104.573 189.73C106.201 189.73 107.355 190.807 107.355 192.326C107.355 193.892 106.201 195 104.573 195H102.721V189.73H104.573ZM104.573 194.434C105.829 194.434 106.728 193.558 106.728 192.326C106.728 191.148 105.829 190.296 104.573 190.296H103.333V194.434H104.573ZM109.075 191.993C109.408 191.567 109.889 191.319 110.462 191.319V191.877C109.873 191.892 109.393 192.163 109.075 192.659V195H108.486V191.404H109.075V191.993ZM112.901 191.311C113.994 191.311 114.807 192.117 114.807 193.202C114.807 194.287 113.994 195.093 112.901 195.093C111.8 195.093 110.987 194.287 110.987 193.202C110.987 192.117 111.8 191.311 112.901 191.311ZM112.901 194.55C113.653 194.55 114.211 193.977 114.211 193.202C114.211 192.427 113.653 191.853 112.901 191.853C112.141 191.853 111.576 192.427 111.576 193.202C111.576 193.977 112.141 194.55 112.901 194.55ZM117.717 191.319C118.748 191.319 119.569 192.156 119.569 193.202C119.569 194.256 118.748 195.085 117.717 195.085C117.206 195.085 116.772 194.915 116.454 194.62V196.798H115.865V191.404H116.454V191.784C116.772 191.489 117.206 191.319 117.717 191.319ZM117.64 194.566C118.399 194.566 118.98 193.946 118.98 193.202C118.98 192.458 118.399 191.838 117.64 191.838C117.167 191.838 116.748 192.032 116.454 192.466V193.938C116.748 194.372 117.167 194.566 117.64 194.566ZM125.674 191.404H126.263V195H125.674V194.628C125.356 194.922 124.922 195.093 124.411 195.093C123.38 195.093 122.559 194.256 122.559 193.202C122.559 192.156 123.38 191.311 124.411 191.311C124.922 191.311 125.356 191.481 125.674 191.776V191.404ZM124.488 194.55C124.961 194.55 125.38 194.372 125.674 193.938V192.466C125.38 192.032 124.961 191.853 124.488 191.853C123.729 191.853 123.148 192.458 123.148 193.202C123.148 193.946 123.729 194.55 124.488 194.55ZM133.329 190.296H130.322V192.233H133.003V192.799H130.322V195H129.71V189.73H133.329V190.296ZM135.621 191.311C136.714 191.311 137.528 192.117 137.528 193.202C137.528 194.287 136.714 195.093 135.621 195.093C134.521 195.093 133.707 194.287 133.707 193.202C133.707 192.117 134.521 191.311 135.621 191.311ZM135.621 194.55C136.373 194.55 136.931 193.977 136.931 193.202C136.931 192.427 136.373 191.853 135.621 191.853C134.862 191.853 134.296 192.427 134.296 193.202C134.296 193.977 134.862 194.55 135.621 194.55ZM138.57 189.497H139.159V195H138.57V189.497ZM143.331 189.497H143.92V195H143.331V194.628C143.013 194.922 142.579 195.093 142.068 195.093C141.037 195.093 140.216 194.248 140.216 193.202C140.216 192.148 141.037 191.311 142.068 191.311C142.579 191.311 143.013 191.481 143.331 191.776V189.497ZM142.145 194.55C142.618 194.55 143.037 194.372 143.331 193.938V192.466C143.037 192.032 142.618 191.853 142.145 191.853C141.386 191.853 140.805 192.458 140.805 193.202C140.805 193.946 141.386 194.55 142.145 194.55ZM146.828 191.311C147.983 191.311 148.704 192.202 148.587 193.38H145.58C145.65 194.047 146.107 194.566 146.859 194.566C147.316 194.566 147.665 194.403 147.82 194.101H148.479C148.254 194.721 147.634 195.093 146.859 195.093C145.751 195.093 144.984 194.264 144.984 193.202C144.984 192.14 145.743 191.311 146.828 191.311ZM146.828 191.822C146.115 191.822 145.673 192.326 145.588 192.962H147.998C147.967 192.249 147.51 191.822 146.828 191.822ZM150.201 191.993C150.535 191.567 151.015 191.319 151.589 191.319V191.877C151 191.892 150.519 192.163 150.201 192.659V195H149.612V191.404H150.201V191.993Z" fill="#E8E4DD"/>
<path d="M87.7075 202.73H88.3508L86.5528 208.039H85.956L84.5223 203.823L83.0885 208.039H82.4917L80.6938 202.73H81.337L82.7863 207.101L84.2588 202.73H84.7858L86.2505 207.093L87.7075 202.73ZM91.4517 204.404H92.0407V208H91.4517V207.628C91.134 207.922 90.7 208.093 90.1885 208.093C89.1577 208.093 88.3362 207.256 88.3362 206.202C88.3362 205.156 89.1577 204.311 90.1885 204.311C90.7 204.311 91.134 204.481 91.4517 204.776V204.404ZM90.266 207.55C90.7387 207.55 91.1572 207.372 91.4517 206.938V205.466C91.1572 205.032 90.7387 204.853 90.266 204.853C89.5065 204.853 88.9252 205.458 88.9252 206.202C88.9252 206.946 89.5065 207.55 90.266 207.55ZM95.6225 207.419L95.7077 207.961C95.4132 208.062 95.1652 208.093 94.9482 208.093C94.0647 208.093 93.6385 207.605 93.6385 206.667V204.908H92.7007V204.404H93.6385V203.079H94.2275V204.404H95.5837V204.908H94.2275V206.667C94.2275 207.287 94.491 207.543 95.0025 207.543C95.204 207.543 95.4287 207.489 95.6225 207.419ZM98.0906 207.55C98.6486 207.55 99.0671 207.248 99.1756 206.775H99.7878C99.6483 207.558 98.9586 208.093 98.0906 208.093C96.9978 208.093 96.2073 207.264 96.2073 206.202C96.2073 205.14 96.9978 204.311 98.0906 204.311C98.9586 204.311 99.6483 204.846 99.7878 205.636H99.1756C99.0671 205.163 98.6486 204.853 98.0906 204.853C97.3078 204.853 96.7963 205.458 96.7963 206.202C96.7963 206.954 97.3078 207.55 98.0906 207.55ZM102.704 204.311C103.618 204.311 104.246 204.923 104.246 205.938V208H103.657V205.969C103.657 205.241 103.231 204.853 102.595 204.853C102.169 204.853 101.727 205.07 101.417 205.473V208H100.828V202.497H101.417V204.807C101.751 204.489 102.192 204.311 102.704 204.311ZM110.613 204.404H111.24L108.807 209.79H108.179L108.931 208.124L107.079 204.404H107.714L109.218 207.496L110.613 204.404ZM113.516 204.311C114.608 204.311 115.422 205.117 115.422 206.202C115.422 207.287 114.608 208.093 113.516 208.093C112.415 208.093 111.601 207.287 111.601 206.202C111.601 205.117 112.415 204.311 113.516 204.311ZM113.516 207.55C114.267 207.55 114.825 206.977 114.825 206.202C114.825 205.427 114.267 204.853 113.516 204.853C112.756 204.853 112.19 205.427 112.19 206.202C112.19 206.977 112.756 207.55 113.516 207.55ZM119.161 204.404H119.75V208H119.161V207.589C118.828 207.907 118.386 208.093 117.875 208.093C116.96 208.093 116.332 207.465 116.332 206.45V204.404H116.921V206.419C116.921 207.147 117.348 207.55 117.983 207.55C118.409 207.55 118.851 207.326 119.161 206.915V204.404ZM121.61 204.993C121.943 204.567 122.424 204.319 122.997 204.319V204.877C122.408 204.892 121.928 205.163 121.61 205.659V208H121.021V204.404H121.61V204.993ZM127.817 202.73C129.034 202.73 129.848 203.427 129.848 204.481C129.848 205.574 129.003 206.295 127.74 206.295H126.57V208H125.957V202.73H127.817ZM127.794 205.729C128.662 205.729 129.243 205.233 129.243 204.481C129.243 203.768 128.662 203.288 127.794 203.288H126.57V205.729H127.794ZM132.599 204.311C133.513 204.311 134.141 204.923 134.141 205.938V208H133.552V205.969C133.552 205.241 133.126 204.853 132.49 204.853C132.064 204.853 131.622 205.07 131.312 205.473V208H130.723V202.497H131.312V204.807C131.646 204.489 132.087 204.311 132.599 204.311ZM136.993 204.311C138.085 204.311 138.899 205.117 138.899 206.202C138.899 207.287 138.085 208.093 136.993 208.093C135.892 208.093 135.078 207.287 135.078 206.202C135.078 205.117 135.892 204.311 136.993 204.311ZM136.993 207.55C137.744 207.55 138.302 206.977 138.302 206.202C138.302 205.427 137.744 204.853 136.993 204.853C136.233 204.853 135.667 205.427 135.667 206.202C135.667 206.977 136.233 207.55 136.993 207.55ZM142.266 207.419L142.352 207.961C142.057 208.062 141.809 208.093 141.592 208.093C140.709 208.093 140.282 207.605 140.282 206.667V204.908H139.345V204.404H140.282V203.079H140.871V204.404H142.228V204.908H140.871V206.667C140.871 207.287 141.135 207.543 141.646 207.543C141.848 207.543 142.073 207.489 142.266 207.419ZM144.765 204.311C145.858 204.311 146.672 205.117 146.672 206.202C146.672 207.287 145.858 208.093 144.765 208.093C143.665 208.093 142.851 207.287 142.851 206.202C142.851 205.117 143.665 204.311 144.765 204.311ZM144.765 207.55C145.517 207.55 146.075 206.977 146.075 206.202C146.075 205.427 145.517 204.853 144.765 204.853C144.006 204.853 143.44 205.427 143.44 206.202C143.44 206.977 144.006 207.55 144.765 207.55ZM150.621 204.404H151.21V208.178C151.21 209.232 150.489 209.876 149.42 209.876C148.428 209.876 147.715 209.318 147.591 208.519H148.195C148.296 209.008 148.746 209.341 149.42 209.341C150.141 209.341 150.621 208.907 150.621 208.178V207.504C150.288 207.798 149.838 207.969 149.319 207.969C148.288 207.969 147.506 207.147 147.506 206.155C147.506 205.094 148.288 204.311 149.319 204.311C149.838 204.311 150.288 204.481 150.621 204.776V204.404ZM149.397 207.45C149.869 207.45 150.319 207.256 150.621 206.814V205.466C150.319 205.024 149.869 204.83 149.397 204.83C148.637 204.83 148.095 205.396 148.095 206.155C148.095 206.845 148.637 207.45 149.397 207.45ZM153.071 204.993C153.405 204.567 153.885 204.319 154.459 204.319V204.877C153.87 204.892 153.389 205.163 153.071 205.659V208H152.482V204.404H153.071V204.993ZM158.099 204.404H158.688V208H158.099V207.628C157.781 207.922 157.347 208.093 156.835 208.093C155.805 208.093 154.983 207.256 154.983 206.202C154.983 205.156 155.805 204.311 156.835 204.311C157.347 204.311 157.781 204.481 158.099 204.776V204.404ZM156.913 207.55C157.386 207.55 157.804 207.372 158.099 206.938V205.466C157.804 205.032 157.386 204.853 156.913 204.853C156.153 204.853 155.572 205.458 155.572 206.202C155.572 206.946 156.153 207.55 156.913 207.55ZM161.812 204.319C162.843 204.319 163.664 205.156 163.664 206.202C163.664 207.256 162.843 208.085 161.812 208.085C161.301 208.085 160.867 207.915 160.549 207.62V209.798H159.96V204.404H160.549V204.784C160.867 204.489 161.301 204.319 161.812 204.319ZM161.735 207.566C162.494 207.566 163.075 206.946 163.075 206.202C163.075 205.458 162.494 204.838 161.735 204.838C161.262 204.838 160.843 205.032 160.549 205.466V206.938C160.843 207.372 161.262 207.566 161.735 207.566ZM166.588 204.311C167.503 204.311 168.131 204.923 168.131 205.938V208H167.542V205.969C167.542 205.241 167.115 204.853 166.48 204.853C166.054 204.853 165.612 205.07 165.302 205.473V208H164.713V202.497H165.302V204.807C165.635 204.489 166.077 204.311 166.588 204.311ZM169.518 206.868C169.627 207.349 169.999 207.605 170.658 207.605C171.216 207.605 171.595 207.395 171.595 207.031C171.595 206.729 171.355 206.551 171.006 206.489L170.193 206.357C169.604 206.256 169.123 205.993 169.123 205.38C169.123 204.714 169.712 204.311 170.58 204.311C171.332 204.311 172.076 204.598 172.146 205.45H171.595C171.533 205.001 171.154 204.791 170.58 204.791C170.038 204.791 169.712 205.001 169.712 205.326C169.712 205.59 169.89 205.783 170.379 205.869L171.092 205.985C171.611 206.07 172.161 206.303 172.161 206.992C172.161 207.698 171.526 208.093 170.642 208.093C169.728 208.093 169.077 207.713 168.968 206.868H169.518Z" fill="#E8E4DD"/>
<path d="M102.228 218.272C103.003 218.404 103.39 218.907 103.39 219.558C103.39 220.419 102.639 221 101.468 221H99.2208V215.73H101.406C102.468 215.73 103.119 216.249 103.119 217.063C103.119 217.644 102.794 218.101 102.228 218.272ZM101.344 216.272H99.833V218.078H101.267C102.081 218.078 102.538 217.714 102.538 217.133C102.538 216.606 102.088 216.272 101.344 216.272ZM101.445 220.457C102.29 220.457 102.786 220.047 102.786 219.496C102.786 218.923 102.29 218.59 101.461 218.59H99.833V220.457H101.445ZM106.039 217.311C107.194 217.311 107.914 218.202 107.798 219.38H104.791C104.861 220.047 105.318 220.566 106.07 220.566C106.527 220.566 106.876 220.403 107.031 220.101H107.69C107.465 220.721 106.845 221.093 106.07 221.093C104.962 221.093 104.194 220.264 104.194 219.202C104.194 218.14 104.954 217.311 106.039 217.311ZM106.039 217.822C105.326 217.822 104.884 218.326 104.799 218.962H107.209C107.178 218.249 106.721 217.822 106.039 217.822ZM110.596 220.55C111.154 220.55 111.572 220.248 111.681 219.775H112.293C112.154 220.558 111.464 221.093 110.596 221.093C109.503 221.093 108.713 220.264 108.713 219.202C108.713 218.14 109.503 217.311 110.596 217.311C111.464 217.311 112.154 217.846 112.293 218.636H111.681C111.572 218.163 111.154 217.853 110.596 217.853C109.813 217.853 109.302 218.458 109.302 219.202C109.302 219.954 109.813 220.55 110.596 220.55ZM115.1 217.311C116.193 217.311 117.006 218.117 117.006 219.202C117.006 220.287 116.193 221.093 115.1 221.093C113.999 221.093 113.186 220.287 113.186 219.202C113.186 218.117 113.999 217.311 115.1 217.311ZM115.1 220.55C115.852 220.55 116.41 219.977 116.41 219.202C116.41 218.427 115.852 217.853 115.1 217.853C114.34 217.853 113.775 218.427 113.775 219.202C113.775 219.977 114.34 220.55 115.1 220.55ZM122.374 217.311C123.289 217.311 123.885 217.846 123.885 218.876V221H123.296V218.876C123.296 218.163 122.924 217.853 122.335 217.853C121.901 217.853 121.498 218.032 121.212 218.466C121.235 218.582 121.243 218.706 121.243 218.845V221H120.654V218.845C120.654 218.14 120.274 217.853 119.724 217.853C119.274 217.853 118.879 218.039 118.6 218.458V221H118.011V217.404H118.6V217.791C118.894 217.489 119.266 217.311 119.786 217.311C120.336 217.311 120.762 217.512 121.01 217.908C121.359 217.528 121.801 217.311 122.374 217.311ZM126.67 217.311C127.825 217.311 128.546 218.202 128.429 219.38H125.422C125.492 220.047 125.949 220.566 126.701 220.566C127.158 220.566 127.507 220.403 127.662 220.101H128.321C128.096 220.721 127.476 221.093 126.701 221.093C125.593 221.093 124.826 220.264 124.826 219.202C124.826 218.14 125.585 217.311 126.67 217.311ZM126.67 217.822C125.957 217.822 125.515 218.326 125.43 218.962H127.84C127.809 218.249 127.352 217.822 126.67 217.822ZM133.549 215.637C134.587 215.637 135.486 216.094 135.618 217.179H135.006C134.889 216.551 134.448 216.164 133.587 216.164C132.812 216.164 132.309 216.513 132.309 217.109C132.309 217.574 132.642 217.838 133.27 217.962L134.13 218.125C135.075 218.311 135.61 218.737 135.61 219.512C135.61 220.473 134.82 221.093 133.634 221.093C132.371 221.093 131.549 220.45 131.433 219.31H132.037C132.161 220.101 132.727 220.543 133.665 220.543C134.471 220.543 134.982 220.178 134.982 219.582C134.982 219.163 134.696 218.838 134.029 218.722L133.045 218.528C132.107 218.349 131.658 217.869 131.658 217.148C131.658 216.226 132.417 215.637 133.549 215.637ZM138.489 217.319C139.52 217.319 140.341 218.156 140.341 219.202C140.341 220.256 139.52 221.085 138.489 221.085C137.977 221.085 137.543 220.915 137.226 220.62V222.798H136.637V217.404H137.226V217.784C137.543 217.489 137.977 217.319 138.489 217.319ZM138.411 220.566C139.171 220.566 139.752 219.946 139.752 219.202C139.752 218.458 139.171 217.838 138.411 217.838C137.939 217.838 137.52 218.032 137.226 218.466V219.938C137.52 220.372 137.939 220.566 138.411 220.566ZM144.357 217.404H144.946V221H144.357V220.628C144.039 220.922 143.605 221.093 143.094 221.093C142.063 221.093 141.241 220.256 141.241 219.202C141.241 218.156 142.063 217.311 143.094 217.311C143.605 217.311 144.039 217.481 144.357 217.776V217.404ZM143.171 220.55C143.644 220.55 144.062 220.372 144.357 219.938V218.466C144.062 218.032 143.644 217.853 143.171 217.853C142.412 217.853 141.83 218.458 141.83 219.202C141.83 219.946 142.412 220.55 143.171 220.55ZM147.878 220.55C148.436 220.55 148.854 220.248 148.963 219.775H149.575C149.435 220.558 148.746 221.093 147.878 221.093C146.785 221.093 145.994 220.264 145.994 219.202C145.994 218.14 146.785 217.311 147.878 217.311C148.746 217.311 149.435 217.846 149.575 218.636H148.963C148.854 218.163 148.436 217.853 147.878 217.853C147.095 217.853 146.583 218.458 146.583 219.202C146.583 219.954 147.095 220.55 147.878 220.55ZM152.312 217.311C153.467 217.311 154.187 218.202 154.071 219.38H151.064C151.134 220.047 151.591 220.566 152.343 220.566C152.8 220.566 153.149 220.403 153.304 220.101H153.963C153.738 220.721 153.118 221.093 152.343 221.093C151.235 221.093 150.467 220.264 150.467 219.202C150.467 218.14 151.227 217.311 152.312 217.311ZM152.312 217.822C151.599 217.822 151.157 218.326 151.072 218.962H153.482C153.451 218.249 152.994 217.822 152.312 217.822Z" fill="#E8E4DD"/>
</g>
</g>
<defs>
<filter id="filter0_i_304_872" x="0" y="-60" width="253" height="340" filterUnits="userSpaceOnUse" color-interpolation-filters="sRGB">
<feFlood flood-opacity="0" result="BackgroundImageFix"/>
<feBlend mode="normal" in="SourceGraphic" in2="BackgroundImageFix" result="shape"/>
<feColorMatrix in="SourceAlpha" type="matrix" values="0 0 0 0 0 0 0 0 0 0 0 0 0 0 0 0 0 0 127 0" result="hardAlpha"/>
<feOffset dy="-60"/>
<feGaussianBlur stdDeviation="31"/>
<feComposite in2="hardAlpha" operator="arithmetic" k2="-1" k3="1"/>
<feColorMatrix type="matrix" values="0 0 0 0 0 0 0 0 0 0 0 0 0 0 0 0 0 0 0.45 0"/>
<feBlend mode="normal" in2="shape" result="effect1_innerShadow_304_872"/>
</filter>
<filter id="filter1_g_304_872" x="-4" y="-4" width="261" height="288" filterUnits="userSpaceOnUse" color-interpolation-filters="sRGB">
<feFlood flood-opacity="0" result="BackgroundImageFix"/>
<feBlend mode="normal" in="SourceGraphic" in2="BackgroundImageFix" result="shape"/>
<feTurbulence type="fractalNoise" baseFrequency="0.15384615957736969 0.15384615957736969" numOctaves="3" seed="8583" />
<feDisplacementMap in="shape" scale="8" xChannelSelector="R" yChannelSelector="G" result="displacedImage" width="100%" height="100%" />
<feMerge result="effect1_texture_304_872">
<feMergeNode in="displacedImage"/>
</feMerge>
</filter>
<radialGradient id="paint0_radial_304_872" cx="0" cy="0" r="1" gradientUnits="userSpaceOnUse" gradientTransform="translate(127.934 104.616) scale(84.0659)">
<stop stop-color="#C8A96E" stop-opacity="0.1"/>
<stop offset="0.55" stop-color="#C8A96E" stop-opacity="0.02"/>
<stop offset="1" stop-color="#C8A96E" stop-opacity="0"/>
</radialGradient>
<radialGradient id="paint1_radial_304_872" cx="0" cy="0" r="1" gradientUnits="userSpaceOnUse" gradientTransform="translate(127.934 104.616) scale(84.0659)">
<stop stop-color="#C8A96E" stop-opacity="0.04"/>
<stop offset="1" stop-color="#C8A96E" stop-opacity="0"/>
</radialGradient>
<radialGradient id="paint2_radial_304_872" cx="0" cy="0" r="1" gradientUnits="userSpaceOnUse" gradientTransform="translate(127 140) scale(270)">
<stop stop-color="#C8A96E" stop-opacity="0.04"/>
<stop offset="1" stop-color="#C8A96E" stop-opacity="0"/>
</radialGradient>
<clipPath id="clip0_304_872">
<rect width="253" height="280" rx="12" fill="white"/>
</clipPath>
</defs>
</svg>
