<svg width="253" height="280" viewBox="0 0 253 280" fill="none" xmlns="http://www.w3.org/2000/svg">
<g filter="url(#filter0_i_144_1578)">
<g clip-path="url(#clip0_144_1578)">
<rect width="253" height="280" rx="12" fill="#202020"/>
<g filter="url(#filter1_g_144_1578)">
<rect width="253" height="280" fill="black" fill-opacity="0.01"/>
</g>
<path d="M127.934 188.682C174.362 188.682 212 151.044 212 104.616C212 58.1874 174.362 20.5498 127.934 20.5498C81.5058 20.5498 43.8682 58.1874 43.8682 104.616C43.8682 151.044 81.5058 188.682 127.934 188.682Z" fill="url(#paint0_radial_144_1578)"/>
<path opacity="0.05" d="M127.934 184.945C172.299 184.945 208.264 148.981 208.264 104.616C208.264 60.2509 172.299 24.2861 127.934 24.2861C83.5691 24.2861 47.6042 60.2509 47.6042 104.616C47.6042 148.981 83.5691 184.945 127.934 184.945Z" stroke="#E8E4DD" stroke-width="0.124542"/>
<path opacity="0.03" d="M127.934 180.586C169.892 180.586 203.905 146.573 203.905 104.615C203.905 62.6578 169.892 28.6445 127.934 28.6445C85.9766 28.6445 51.9634 62.6578 51.9634 104.615C51.9634 146.573 85.9766 180.586 127.934 180.586Z" stroke="#E8E4DD" stroke-width="0.0934066"/>
<path opacity="0.1" d="M127.934 127.967C165.765 127.967 196.432 117.512 196.432 104.615C196.432 91.7186 165.765 81.2637 127.934 81.2637C90.1037 81.2637 59.436 91.7186 59.436 104.615C59.436 117.512 90.1037 127.967 127.934 127.967Z" stroke="#E8E4DD" stroke-width="0.186813"/>
<path opacity="0.16" d="M107.711 116.292C126.626 149.054 151.014 170.386 162.183 163.937C173.352 157.489 167.073 125.702 148.157 92.9403C129.242 60.1781 104.854 38.8466 93.6851 45.295C82.5162 51.7433 88.7958 83.5298 107.711 116.292Z" stroke="#C8A96E" stroke-width="0.155678"/>
<path opacity="0.07" d="M107.711 92.9392C88.7957 125.701 82.5161 157.488 93.685 163.936C104.854 170.385 129.242 149.053 148.157 116.291C167.072 83.5287 173.352 51.7423 162.183 45.2939C151.014 38.8455 126.626 60.1771 107.711 92.9392Z" stroke="#E8E4DD" stroke-width="0.124542"/>
<path opacity="0.13" d="M127.934 121.74C155.447 121.74 177.751 114.073 177.751 104.616C177.751 95.1581 155.447 87.4912 127.934 87.4912C100.421 87.4912 78.1172 95.1581 78.1172 104.616C78.1172 114.073 100.421 121.74 127.934 121.74Z" stroke="#E8E4DD" stroke-width="0.217949"/>
<path opacity="0.22" d="M115.825 116.724C135.28 136.179 156.472 146.528 163.16 139.841C169.847 133.153 159.497 111.961 140.043 92.5061C120.588 73.0514 99.3956 62.7016 92.708 69.3891C86.0205 76.0767 96.3703 97.2692 115.825 116.724Z" stroke="#C8A96E" stroke-width="0.186813"/>
<path opacity="0.08" d="M110.81 104.615C110.81 132.128 118.476 154.432 127.934 154.432C137.392 154.432 145.059 132.128 145.059 104.615C145.059 77.1016 137.392 54.7979 127.934 54.7979C118.476 54.7979 110.81 77.1016 110.81 104.615Z" stroke="#E8E4DD" stroke-width="0.124542"/>
<path opacity="0.05" d="M115.825 92.5061C96.3705 111.961 86.0207 133.153 92.7083 139.841C99.3958 146.528 120.588 136.179 140.043 116.724C159.498 97.2692 169.847 76.0767 163.16 69.3892C156.472 62.7016 135.28 73.0514 115.825 92.5061Z" stroke="#E8E4DD" stroke-width="0.0934066"/>
<path opacity="0.18" d="M127.934 115.825C145.13 115.825 159.07 110.806 159.07 104.616C159.07 98.4256 145.13 93.4072 127.934 93.4072C110.738 93.4072 96.7986 98.4256 96.7986 104.616C96.7986 110.806 110.738 115.825 127.934 115.825Z" stroke="#E8E4DD" stroke-width="0.249084"/>
<path opacity="0.32" d="M118.227 110.22C126.825 125.112 138.141 134.675 143.502 131.58C148.863 128.484 146.239 113.903 137.641 99.011C129.043 84.1191 117.727 74.556 112.366 77.6513C107.005 80.7465 109.629 95.3279 118.227 110.22Z" stroke="#C8A96E" stroke-width="0.217949"/>
<path opacity="0.12" d="M118.227 99.0112C109.629 113.903 107.005 128.485 112.366 131.58C117.727 134.675 129.043 125.112 137.641 110.22C146.239 95.3281 148.863 80.7467 143.502 77.6515C138.141 74.5562 126.825 84.1193 118.227 99.0112Z" stroke="#E8E4DD" stroke-width="0.155678"/>
<path opacity="0.06" d="M127.934 22.1064V187.125" stroke="#E8E4DD" stroke-width="0.0934066"/>
<path opacity="0.05" d="M43.8682 104.615H212" stroke="#E8E4DD" stroke-width="0.0934066"/>
<path opacity="0.22" d="M127.934 104.615L68.7766 56.0439" stroke="#C8A96E" stroke-width="0.186813"/>
<path opacity="0.12" d="M127.934 104.615L186.469 60.4023" stroke="#E8E4DD" stroke-width="0.124542"/>
<path opacity="0.18" d="M127.934 104.615L194.875 145.091" stroke="#C8A96E" stroke-width="0.155678"/>
<path opacity="0.1" d="M127.934 104.615L58.1904 152.564" stroke="#E8E4DD" stroke-width="0.124542"/>
<path opacity="0.08" d="M127.934 104.616L112.366 24.2861" stroke="#E8E4DD" stroke-width="0.0934066"/>
<path opacity="0.15" d="M127.934 104.615L158.447 182.454" stroke="#C8A96E" stroke-width="0.124542"/>
<path opacity="0.88" d="M87.9102 49.2405L62.7403 57.4186C62.3314 57.5515 62.1077 57.9906 62.2405 58.3995L67.7247 75.2781C67.8576 75.687 68.2967 75.9107 68.7056 75.7779L93.8755 67.5997C94.2843 67.4668 94.5081 67.0277 94.3752 66.6188L88.891 49.7402C88.7582 49.3314 88.319 49.1076 87.9102 49.2405Z" fill="#111111" stroke="#E8E4DD" stroke-width="0.186813"/>
<path opacity="0.32" d="M87.9102 49.2405L62.7403 57.4186C62.3314 57.5515 62.1077 57.9906 62.2405 58.3995L67.7247 75.2781C67.8576 75.687 68.2967 75.9107 68.7056 75.7779L93.8755 67.5997C94.2843 67.4668 94.5081 67.0277 94.3752 66.6188L88.891 49.7402C88.7582 49.3314 88.319 49.1076 87.9102 49.2405Z" stroke="#C8A96E" stroke-width="0.155678"/>
<path opacity="0.04" d="M86.8071 51.8906L65.1906 58.9143C64.9453 58.994 64.811 59.2575 64.8907 59.5028L69.2204 72.828C69.3001 73.0733 69.5635 73.2076 69.8088 73.1279L91.4253 66.1042C91.6707 66.0245 91.8049 65.761 91.7252 65.5157L87.3956 52.1905C87.3159 51.9452 87.0524 51.8109 86.8071 51.8906Z" fill="#E8E4DD"/>
<path opacity="0.1" d="M66.3818 64.0928L88.8867 56.7805" stroke="#E8E4DD" stroke-width="0.124542"/>
<path opacity="0.07" d="M67.4403 67.3506L86.6879 61.0967" stroke="#E8E4DD" stroke-width="0.0934066"/>
<path opacity="0.88" d="M197.104 58.5908L171.425 52.1883C171.008 52.0843 170.586 52.3381 170.482 52.7553L166.188 69.9753C166.084 70.3925 166.338 70.8149 166.755 70.9189L192.434 77.3214C192.851 77.4254 193.274 77.1716 193.378 76.7545L197.671 59.5344C197.775 59.1173 197.522 58.6948 197.104 58.5908Z" fill="#111111" stroke="#E8E4DD" stroke-width="0.186813"/>
<path opacity="0.28" d="M197.104 58.5908L171.425 52.1883C171.008 52.0843 170.586 52.3381 170.482 52.7553L166.188 69.9753C166.084 70.3925 166.338 70.8149 166.755 70.9189L192.434 77.3214C192.851 77.4254 193.274 77.1716 193.378 76.7545L197.671 59.5344C197.775 59.1173 197.522 58.6948 197.104 58.5908Z" stroke="#C8A96E" stroke-width="0.155678"/>
<path opacity="0.04" d="M194.765 60.2542L172.711 54.7556C172.461 54.6932 172.207 54.8455 172.145 55.0957L168.755 68.6905C168.693 68.9408 168.845 69.1943 169.095 69.2567L191.149 74.7553C191.399 74.8177 191.653 74.6654 191.715 74.4151L195.105 60.8203C195.167 60.5701 195.015 60.3166 194.765 60.2542Z" fill="#E8E4DD"/>
<path opacity="0.09" d="M180.868 56.7893L172.711 54.7556C172.461 54.6932 172.207 54.8455 172.145 55.0957L168.755 68.6905C168.693 68.9408 168.845 69.1943 169.095 69.2567L177.252 71.2904C177.502 71.3528 177.756 71.2005 177.818 70.9502L181.208 57.3554C181.27 57.1052 181.118 56.8517 180.868 56.7893Z" fill="#C8A96E"/>
<path opacity="0.88" d="M208.932 121.792L182.725 118.108C182.299 118.049 181.906 118.345 181.846 118.771L179.376 136.345C179.316 136.771 179.613 137.165 180.038 137.224L206.246 140.908C206.672 140.968 207.065 140.671 207.125 140.245L209.595 122.671C209.655 122.245 209.358 121.851 208.932 121.792Z" fill="#111111" stroke="#E8E4DD" stroke-width="0.186813"/>
<path opacity="0.36" d="M208.932 121.792L182.725 118.108C182.299 118.049 181.906 118.345 181.846 118.771L179.376 136.345C179.316 136.771 179.613 137.165 180.038 137.224L206.246 140.908C206.672 140.968 207.065 140.671 207.125 140.245L209.595 122.671C209.655 122.245 209.358 121.851 208.932 121.792Z" stroke="#C8A96E" stroke-width="0.155678"/>
<path opacity="0.04" d="M206.779 123.69L184.271 120.527C184.016 120.491 183.78 120.669 183.744 120.924L181.794 134.799C181.758 135.054 181.936 135.291 182.191 135.327L204.699 138.49C204.955 138.526 205.191 138.348 205.227 138.092L207.177 124.218C207.213 123.962 207.035 123.726 206.779 123.69Z" fill="#E8E4DD"/>
<path opacity="0.22" d="M182.899 126.937L206.332 130.23" stroke="#C8A96E" stroke-width="0.186813"/>
<path opacity="0.82" d="M94.2598 121.29L69.7217 131.205C69.3231 131.366 69.1305 131.819 69.2916 132.218L75.9398 148.673C76.1009 149.071 76.5545 149.264 76.9531 149.103L101.491 139.189C101.89 139.028 102.082 138.574 101.921 138.176L95.2731 121.721C95.1121 121.322 94.6584 121.129 94.2598 121.29Z" fill="#111111" stroke="#E8E4DD" stroke-width="0.186813"/>
<path opacity="0.14" d="M94.2598 121.29L69.7217 131.205C69.3231 131.366 69.1305 131.819 69.2916 132.218L75.9398 148.673C76.1009 149.071 76.5545 149.264 76.9531 149.103L101.491 139.189C101.89 139.028 102.082 138.574 101.921 138.176L95.2731 121.721C95.1121 121.322 94.6584 121.129 94.2598 121.29Z" stroke="#E8E4DD" stroke-width="0.0934066"/>
<path opacity="0.03" d="M93.3443 124.012L72.2704 132.526C72.0312 132.623 71.9157 132.895 72.0123 133.134L77.2609 146.125C77.3575 146.364 77.6297 146.48 77.8689 146.383L98.9428 137.869C99.1819 137.772 99.2975 137.5 99.2009 137.261L93.9522 124.27C93.8556 124.031 93.5834 123.915 93.3443 124.012Z" fill="#E8E4DD"/>
<path opacity="0.78" d="M128.7 27.3792L109.754 26.0543C109.325 26.0243 108.953 26.3476 108.923 26.7765L108.054 39.2004C108.024 39.6292 108.348 40.0012 108.776 40.0312L127.723 41.356C128.152 41.386 128.524 41.0627 128.554 40.6338L129.422 28.2099C129.452 27.7811 129.129 27.4091 128.7 27.3792Z" fill="#111111" stroke="#E8E4DD" stroke-width="0.186813"/>
<path opacity="0.04" d="M126.685 29.423L111.465 28.3588C111.208 28.3408 110.985 28.5348 110.967 28.7921L110.359 37.4888C110.341 37.7461 110.535 37.9693 110.792 37.9873L126.011 39.0515C126.269 39.0695 126.492 38.8755 126.51 38.6182L127.118 29.9215C127.136 29.6642 126.942 29.441 126.685 29.423Z" fill="#E8E4DD"/>
<path opacity="0.8" d="M173.054 164.81L149.687 152.385C149.307 152.183 148.836 152.327 148.634 152.707L142.056 165.078C141.854 165.457 141.998 165.929 142.378 166.13L165.745 178.555C166.125 178.757 166.596 178.613 166.798 178.233L173.376 165.862C173.578 165.483 173.434 165.011 173.054 164.81Z" fill="#111111" stroke="#E8E4DD" stroke-width="0.186813"/>
<path opacity="0.28" d="M173.054 164.81L149.687 152.385C149.307 152.183 148.836 152.327 148.634 152.707L142.056 165.078C141.854 165.457 141.998 165.929 142.378 166.13L165.745 178.555C166.125 178.757 166.596 178.613 166.798 178.233L173.376 165.862C173.578 165.483 173.434 165.011 173.054 164.81Z" stroke="#C8A96E" stroke-width="0.124542"/>
<path opacity="0.07" d="M170.381 165.857L150.313 155.186C150.085 155.065 149.802 155.151 149.681 155.379L144.858 164.451C144.736 164.679 144.823 164.962 145.051 165.083L165.119 175.753C165.347 175.875 165.63 175.788 165.751 175.56L170.574 166.488C170.696 166.261 170.609 165.978 170.381 165.857Z" fill="#C8A96E"/>
<path opacity="0.12" d="M127.934 118.315C135.5 118.315 141.634 112.182 141.634 104.616C141.634 97.0495 135.5 90.916 127.934 90.916C120.368 90.916 114.234 97.0495 114.234 104.616C114.234 112.182 120.368 118.315 127.934 118.315Z" stroke="#C8A96E" stroke-width="0.124542"/>
<path opacity="0.2" d="M127.934 112.399C132.233 112.399 135.718 108.914 135.718 104.615C135.718 100.316 132.233 96.8311 127.934 96.8311C123.635 96.8311 120.15 100.316 120.15 104.615C120.15 108.914 123.635 112.399 127.934 112.399Z" stroke="#C8A96E" stroke-width="0.186813"/>
<path opacity="0.7" d="M127.934 105.705C128.536 105.705 129.024 105.217 129.024 104.615C129.024 104.013 128.536 103.525 127.934 103.525C127.332 103.525 126.844 104.013 126.844 104.615C126.844 105.217 127.332 105.705 127.934 105.705Z" fill="#C8A96E"/>
<path d="M127.934 105.114C128.209 105.114 128.432 104.89 128.432 104.615C128.432 104.34 128.209 104.117 127.934 104.117C127.659 104.117 127.436 104.34 127.436 104.615C127.436 104.89 127.659 105.114 127.934 105.114Z" fill="#C8A96E"/>
<path opacity="0.3" d="M127.934 21.1721V18.0586" stroke="#C8A96E" stroke-width="0.217949"/>
<path opacity="0.3" d="M45.1136 104.615H42" stroke="#C8A96E" stroke-width="0.217949"/>
<path d="M127.934 188.682C174.362 188.682 212 151.044 212 104.616C212 58.1874 174.362 20.5498 127.934 20.5498C81.5058 20.5498 43.8682 58.1874 43.8682 104.616C43.8682 151.044 81.5058 188.682 127.934 188.682Z" fill="url(#paint1_radial_144_1578)"/>
<path d="M127 410C276.117 410 397 289.117 397 140C397 -9.11688 276.117 -130 127 -130C-22.1169 -130 -143 -9.11688 -143 140C-143 289.117 -22.1169 410 127 410Z" fill="url(#paint2_radial_144_1578)"/>
<path d="M16.954 198.59C17.7647 198.59 18.5373 198.729 19.272 199.008C20.0067 199.287 20.64 199.679 21.172 200.186C21.7293 200.693 22.1727 201.288 22.502 201.972C22.8313 202.656 22.996 203.416 22.996 204.252L22.958 207.33H19.386L19.424 204.252C19.424 203.593 19.196 203.074 18.74 202.694C18.284 202.289 17.6887 202.086 16.954 202.086C16.346 202.086 15.814 202.289 15.358 202.694C14.902 203.074 14.674 203.593 14.674 204.252V219.148C14.674 219.807 14.902 220.339 15.358 220.744C15.814 221.149 16.346 221.352 16.954 221.352C17.6887 221.352 18.284 221.149 18.74 220.744C19.2213 220.339 19.462 219.807 19.462 219.148V215.044H16.346V211.472H22.996V219.148C22.996 219.984 22.8313 220.757 22.502 221.466C22.1727 222.15 21.7293 222.745 21.172 223.252C20.64 223.759 20.0067 224.151 19.272 224.43C18.5373 224.709 17.7647 224.848 16.954 224.848C16.1433 224.848 15.3833 224.709 14.674 224.43C13.9647 224.151 13.3313 223.759 12.774 223.252C12.242 222.745 11.8113 222.15 11.482 221.466C11.178 220.757 11.026 219.984 11.026 219.148V204.252C11.026 203.416 11.178 202.656 11.482 201.972C11.8113 201.288 12.242 200.693 12.774 200.186C13.3313 199.679 13.9647 199.287 14.674 199.008C15.3833 198.729 16.1433 198.59 16.954 198.59ZM36.4762 198.666V202.276H30.0162V209.61H35.5262V213.334H30.0162V221.276H36.4762V224.848H26.4062V198.666H36.4762ZM49.9834 219.262C49.9834 220.199 49.8188 221.023 49.4894 221.732C49.1601 222.416 48.7168 222.999 48.1594 223.48C47.6021 223.936 46.9434 224.278 46.1834 224.506C45.4488 224.734 44.6761 224.848 43.8654 224.848C43.0548 224.848 42.2821 224.709 41.5474 224.43C40.8381 224.151 40.2048 223.771 39.6474 223.29C39.0901 222.783 38.6468 222.188 38.3174 221.504C38.0134 220.82 37.8614 220.073 37.8614 219.262V204.366C37.8614 203.555 38.0134 202.808 38.3174 202.124C38.6468 201.415 39.0901 200.807 39.6474 200.3C40.2048 199.793 40.8381 199.401 41.5474 199.122C42.2821 198.843 43.0548 198.704 43.8654 198.704C44.6761 198.704 45.4488 198.843 46.1834 199.122C46.9434 199.401 47.6021 199.793 48.1594 200.3C48.7168 200.807 49.1601 201.415 49.4894 202.124C49.8188 202.808 49.9834 203.555 49.9834 204.366V219.262ZM46.2594 204.366C46.2594 203.707 46.0314 203.175 45.5754 202.77C45.1194 202.365 44.5494 202.162 43.8654 202.162C43.2321 202.162 42.7001 202.365 42.2694 202.77C41.8388 203.175 41.6234 203.707 41.6234 204.366V219.262C41.6234 219.87 41.8388 220.377 42.2694 220.782C42.7001 221.162 43.2321 221.352 43.8654 221.352C44.5494 221.352 45.1194 221.162 45.5754 220.782C46.0314 220.377 46.2594 219.87 46.2594 219.262V204.366ZM65.3449 198.666L69.9049 198.704V224.848H66.3329V211.662L63.4069 224.848H60.5189L57.4029 211.662V224.848H53.7929V198.704H58.0489L61.9249 215.766L65.3449 198.666ZM84.3844 198.666V202.276H77.9244V209.61H83.4344V213.334H77.9244V221.276H84.3844V224.848H74.3144V198.666H84.3844ZM90.3267 202.39H86.6407V198.704H97.1667V202.39H93.8607V224.848H90.3267V202.39ZM105.59 198.704C106.375 198.704 107.097 198.831 107.756 199.084C108.44 199.337 109.023 199.717 109.504 200.224C110.011 200.705 110.403 201.301 110.682 202.01C110.961 202.719 111.1 203.517 111.1 204.404V209.04C111.1 210.408 110.859 211.548 110.378 212.46C109.897 213.347 109.175 213.967 108.212 214.322L110.986 224.24L111.138 224.848H107.338L104.374 214.55H103.234V224.848H99.5859V198.704H105.59ZM107.414 204.404C107.414 203.771 107.224 203.239 106.844 202.808C106.464 202.352 106.059 202.124 105.628 202.124H103.234V211.054H106.16C106.591 211.054 106.907 210.877 107.11 210.522C107.313 210.167 107.414 209.673 107.414 209.04V204.404ZM122.494 198.704H126.37L120.86 214.132V224.848H117.212V214.132L111.664 198.704H115.578L119.074 208.432L122.494 198.704ZM144.204 219.262C144.204 220.199 144.039 221.023 143.71 221.732C143.381 222.416 142.937 222.999 142.38 223.48C141.823 223.936 141.164 224.278 140.404 224.506C139.669 224.734 138.897 224.848 138.086 224.848C137.275 224.848 136.503 224.709 135.768 224.43C135.059 224.151 134.425 223.771 133.868 223.29C133.311 222.783 132.867 222.188 132.538 221.504C132.234 220.82 132.082 220.073 132.082 219.262V204.366C132.082 203.555 132.234 202.808 132.538 202.124C132.867 201.415 133.311 200.807 133.868 200.3C134.425 199.793 135.059 199.401 135.768 199.122C136.503 198.843 137.275 198.704 138.086 198.704C138.897 198.704 139.669 198.843 140.404 199.122C141.164 199.401 141.823 199.793 142.38 200.3C142.937 200.807 143.381 201.415 143.71 202.124C144.039 202.808 144.204 203.555 144.204 204.366V219.262ZM140.48 204.366C140.48 203.707 140.252 203.175 139.796 202.77C139.34 202.365 138.77 202.162 138.086 202.162C137.453 202.162 136.921 202.365 136.49 202.77C136.059 203.175 135.844 203.707 135.844 204.366V219.262C135.844 219.87 136.059 220.377 136.49 220.782C136.921 221.162 137.453 221.352 138.086 221.352C138.77 221.352 139.34 221.162 139.796 220.782C140.252 220.377 140.48 219.87 140.48 219.262V204.366ZM151.586 224.848H147.976V198.704H157.324V202.58H151.586V210.256H157.096V214.056H151.586V224.848ZM23.3 236.666L27.86 236.704V262.848H24.288V249.662L21.362 262.848H18.474L15.358 249.662V262.848H11.748V236.704H16.004L19.88 253.766L23.3 236.666ZM42.3395 236.666V240.276H35.8795V247.61H41.3895V251.334H35.8795V259.276H42.3395V262.848H32.2695V236.666H42.3395ZM56.5129 236.666L61.0729 236.704V262.848H57.5009V249.662L54.5749 262.848H51.6869L48.5709 249.662V262.848H44.9609V236.704H49.2169L53.0929 253.766L56.5129 236.666ZM77.1104 257.262C77.1104 258.199 76.9457 259.023 76.6164 259.732C76.287 260.416 75.8437 260.999 75.2864 261.48C74.729 261.936 74.0704 262.278 73.3104 262.506C72.5757 262.734 71.803 262.848 70.9924 262.848C70.1817 262.848 69.409 262.709 68.6744 262.43C67.965 262.151 67.3317 261.771 66.7744 261.29C66.217 260.783 65.7737 260.188 65.4444 259.504C65.1404 258.82 64.9884 258.073 64.9884 257.262V242.366C64.9884 241.555 65.1404 240.808 65.4444 240.124C65.7737 239.415 66.217 238.807 66.7744 238.3C67.3317 237.793 67.965 237.401 68.6744 237.122C69.409 236.843 70.1817 236.704 70.9924 236.704C71.803 236.704 72.5757 236.843 73.3104 237.122C74.0704 237.401 74.729 237.793 75.2864 238.3C75.8437 238.807 76.287 239.415 76.6164 240.124C76.9457 240.808 77.1104 241.555 77.1104 242.366V257.262ZM73.3864 242.366C73.3864 241.707 73.1584 241.175 72.7024 240.77C72.2464 240.365 71.6764 240.162 70.9924 240.162C70.359 240.162 69.827 240.365 69.3964 240.77C68.9657 241.175 68.7504 241.707 68.7504 242.366V257.262C68.7504 257.87 68.9657 258.377 69.3964 258.782C69.827 259.162 70.359 259.352 70.9924 259.352C71.6764 259.352 72.2464 259.162 72.7024 258.782C73.1584 258.377 73.3864 257.87 73.3864 257.262V242.366ZM86.9239 236.704C87.7092 236.704 88.4312 236.831 89.0899 237.084C89.7739 237.337 90.3565 237.717 90.8379 238.224C91.3445 238.705 91.7372 239.301 92.0159 240.01C92.2945 240.719 92.4339 241.517 92.4339 242.404V247.04C92.4339 248.408 92.1932 249.548 91.7119 250.46C91.2305 251.347 90.5085 251.967 89.5459 252.322L92.3199 262.24L92.4719 262.848H88.6719L85.7079 252.55H84.5679V262.848H80.9199V236.704H86.9239ZM88.7479 242.404C88.7479 241.771 88.5579 241.239 88.1779 240.808C87.7979 240.352 87.3925 240.124 86.9619 240.124H84.5679V249.054H87.4939C87.9245 249.054 88.2412 248.877 88.4439 248.522C88.6465 248.167 88.7479 247.673 88.7479 247.04V242.404ZM99.1916 262.848H95.3916V236.704H99.1916V262.848ZM113.478 236.666V240.276H107.018V247.61H112.528V251.334H107.018V259.276H113.478V262.848H103.408V236.666H113.478ZM120.3 236.704C121.111 236.704 121.871 236.843 122.58 237.122C123.315 237.401 123.948 237.793 124.48 238.3C125.037 238.781 125.468 239.364 125.772 240.048C126.101 240.732 126.266 241.479 126.266 242.29V244.684H122.618V242.29C122.618 241.581 122.403 241.049 121.972 240.694C121.541 240.314 120.984 240.124 120.3 240.124C119.667 240.124 119.135 240.314 118.704 240.694C118.299 241.049 118.096 241.581 118.096 242.29V245.178C118.096 245.507 118.147 245.837 118.248 246.166C118.375 246.495 118.539 246.799 118.742 247.078C118.945 247.331 119.173 247.547 119.426 247.724C119.705 247.876 119.996 247.952 120.3 247.952C121.111 247.952 121.871 248.117 122.58 248.446C123.315 248.75 123.948 249.181 124.48 249.738C125.037 250.27 125.468 250.903 125.772 251.638C126.101 252.347 126.266 253.107 126.266 253.918V257.3C126.266 258.111 126.101 258.858 125.772 259.542C125.468 260.226 125.037 260.821 124.48 261.328C123.948 261.809 123.315 262.189 122.58 262.468C121.871 262.721 121.111 262.848 120.3 262.848C119.489 262.848 118.717 262.721 117.982 262.468C117.273 262.189 116.652 261.809 116.12 261.328C115.588 260.821 115.157 260.226 114.828 259.542C114.524 258.858 114.372 258.111 114.372 257.3V255.286H118.172V257.3C118.172 257.908 118.362 258.402 118.742 258.782C119.147 259.162 119.667 259.352 120.3 259.352C120.984 259.352 121.529 259.162 121.934 258.782C122.339 258.402 122.542 257.908 122.542 257.3V254.374C122.542 254.045 122.479 253.715 122.352 253.386C122.251 253.031 122.099 252.715 121.896 252.436C121.719 252.157 121.491 251.929 121.212 251.752C120.933 251.575 120.629 251.486 120.3 251.486C119.489 251.486 118.717 251.309 117.982 250.954C117.273 250.599 116.652 250.131 116.12 249.548C115.588 248.965 115.157 248.294 114.828 247.534C114.524 246.774 114.372 245.989 114.372 245.178V242.29C114.372 241.479 114.524 240.732 114.828 240.048C115.157 239.364 115.588 238.781 116.12 238.3C116.652 237.793 117.273 237.401 117.982 237.122C118.717 236.843 119.489 236.704 120.3 236.704Z" fill="#E8E4DD"/>
<path d="M12.573 157.94C14.2005 157.94 15.3553 159.017 15.3553 160.536C15.3553 162.102 14.2005 163.21 12.573 163.21H10.7208V157.94H12.573ZM12.573 162.644C13.8285 162.644 14.7275 161.768 14.7275 160.536C14.7275 159.358 13.8285 158.506 12.573 158.506H11.333V162.644H12.573ZM17.0748 160.203C17.4081 159.777 17.8886 159.529 18.4621 159.529V160.087C17.8731 160.102 17.3926 160.373 17.0748 160.869V163.21H16.4858V159.614H17.0748V160.203ZM20.9009 159.521C21.9936 159.521 22.8074 160.327 22.8074 161.412C22.8074 162.497 21.9936 163.303 20.9009 163.303C19.8004 163.303 18.9866 162.497 18.9866 161.412C18.9866 160.327 19.8004 159.521 20.9009 159.521ZM20.9009 162.76C21.6526 162.76 22.2106 162.187 22.2106 161.412C22.2106 160.637 21.6526 160.063 20.9009 160.063C20.1414 160.063 19.5756 160.637 19.5756 161.412C19.5756 162.187 20.1414 162.76 20.9009 162.76ZM25.7172 159.529C26.748 159.529 27.5695 160.366 27.5695 161.412C27.5695 162.466 26.748 163.295 25.7172 163.295C25.2057 163.295 24.7717 163.125 24.454 162.83V165.008H23.865V159.614H24.454V159.994C24.7717 159.699 25.2057 159.529 25.7172 159.529ZM25.6397 162.776C26.3992 162.776 26.9805 162.156 26.9805 161.412C26.9805 160.668 26.3992 160.048 25.6397 160.048C25.167 160.048 24.7485 160.242 24.454 160.676V162.148C24.7485 162.582 25.167 162.776 25.6397 162.776ZM33.6741 159.614H34.2631V163.21H33.6741V162.838C33.3564 163.132 32.9224 163.303 32.4109 163.303C31.3801 163.303 30.5586 162.466 30.5586 161.412C30.5586 160.366 31.3801 159.521 32.4109 159.521C32.9224 159.521 33.3564 159.691 33.6741 159.986V159.614ZM32.4884 162.76C32.9611 162.76 33.3796 162.582 33.6741 162.148V160.676C33.3796 160.242 32.9611 160.063 32.4884 160.063C31.7289 160.063 31.1476 160.668 31.1476 161.412C31.1476 162.156 31.7289 162.76 32.4884 162.76ZM41.3288 158.506H38.3218V160.443H41.0033V161.009H38.3218V163.21H37.7095V157.94H41.3288V158.506ZM43.6211 159.521C44.7138 159.521 45.5276 160.327 45.5276 161.412C45.5276 162.497 44.7138 163.303 43.6211 163.303C42.5206 163.303 41.7068 162.497 41.7068 161.412C41.7068 160.327 42.5206 159.521 43.6211 159.521ZM43.6211 162.76C44.3728 162.76 44.9308 162.187 44.9308 161.412C44.9308 160.637 44.3728 160.063 43.6211 160.063C42.8616 160.063 42.2958 160.637 42.2958 161.412C42.2958 162.187 42.8616 162.76 43.6211 162.76ZM46.5701 157.707H47.1591V163.21H46.5701V157.707ZM51.3311 157.707H51.9201V163.21H51.3311V162.838C51.0134 163.132 50.5794 163.303 50.0679 163.303C49.0371 163.303 48.2156 162.458 48.2156 161.412C48.2156 160.358 49.0371 159.521 50.0679 159.521C50.5794 159.521 51.0134 159.691 51.3311 159.986V157.707ZM50.1454 162.76C50.6181 162.76 51.0366 162.582 51.3311 162.148V160.676C51.0366 160.242 50.6181 160.063 50.1454 160.063C49.3859 160.063 48.8046 160.668 48.8046 161.412C48.8046 162.156 49.3859 162.76 50.1454 162.76ZM54.8282 159.521C55.9829 159.521 56.7037 160.412 56.5874 161.59H53.5804C53.6502 162.257 54.1074 162.776 54.8592 162.776C55.3164 162.776 55.6652 162.613 55.8202 162.311H56.4789C56.2542 162.931 55.6342 163.303 54.8592 163.303C53.7509 163.303 52.9837 162.474 52.9837 161.412C52.9837 160.35 53.7432 159.521 54.8282 159.521ZM54.8282 160.032C54.1152 160.032 53.6734 160.536 53.5882 161.172H55.9984C55.9674 160.459 55.5102 160.032 54.8282 160.032ZM58.2013 160.203C58.5346 159.777 59.0151 159.529 59.5886 159.529V160.087C58.9996 160.102 58.5191 160.373 58.2013 160.869V163.21H57.6123V159.614H58.2013V160.203Z" fill="#E8E4DD"/>
<path d="M17.2075 168.877H17.8508L16.0528 174.186H15.456L14.0223 169.97L12.5885 174.186H11.9917L10.1938 168.877H10.837L12.2863 173.248L13.7588 168.877H14.2858L15.7505 173.241L17.2075 168.877ZM20.9517 170.551H21.5407V174.147H20.9517V173.775C20.634 174.07 20.2 174.24 19.6885 174.24C18.6577 174.24 17.8362 173.403 17.8362 172.349C17.8362 171.303 18.6577 170.458 19.6885 170.458C20.2 170.458 20.634 170.629 20.9517 170.923V170.551ZM19.766 173.698C20.2387 173.698 20.6572 173.52 20.9517 173.086V171.613C20.6572 171.179 20.2387 171.001 19.766 171.001C19.0065 171.001 18.4252 171.605 18.4252 172.349C18.4252 173.093 19.0065 173.698 19.766 173.698ZM25.1225 173.566L25.2077 174.109C24.9132 174.209 24.6652 174.24 24.4482 174.24C23.5647 174.24 23.1385 173.752 23.1385 172.814V171.055H22.2007V170.551H23.1385V169.226H23.7275V170.551H25.0837V171.055H23.7275V172.814C23.7275 173.434 23.991 173.69 24.5025 173.69C24.704 173.69 24.9287 173.636 25.1225 173.566ZM27.5906 173.698C28.1486 173.698 28.5671 173.396 28.6756 172.923H29.2878C29.1483 173.706 28.4586 174.24 27.5906 174.24C26.4978 174.24 25.7073 173.411 25.7073 172.349C25.7073 171.288 26.4978 170.458 27.5906 170.458C28.4586 170.458 29.1483 170.993 29.2878 171.784H28.6756C28.5671 171.311 28.1486 171.001 27.5906 171.001C26.8078 171.001 26.2963 171.605 26.2963 172.349C26.2963 173.101 26.8078 173.698 27.5906 173.698ZM32.2039 170.458C33.1184 170.458 33.7461 171.071 33.7461 172.086V174.147H33.1571V172.117C33.1571 171.388 32.7309 171.001 32.0954 171.001C31.6691 171.001 31.2274 171.218 30.9174 171.621V174.147H30.3284V168.645H30.9174V170.954C31.2506 170.637 31.6924 170.458 32.2039 170.458ZM40.1125 170.551H40.7403L38.3068 175.938H37.679L38.4308 174.271L36.5785 170.551H37.214L38.7175 173.644L40.1125 170.551ZM43.0156 170.458C44.1084 170.458 44.9221 171.264 44.9221 172.349C44.9221 173.434 44.1084 174.24 43.0156 174.24C41.9151 174.24 41.1014 173.434 41.1014 172.349C41.1014 171.264 41.9151 170.458 43.0156 170.458ZM43.0156 173.698C43.7674 173.698 44.3254 173.124 44.3254 172.349C44.3254 171.574 43.7674 171.001 43.0156 171.001C42.2561 171.001 41.6904 171.574 41.6904 172.349C41.6904 173.124 42.2561 173.698 43.0156 173.698ZM48.6612 170.551H49.2502V174.147H48.6612V173.737C48.328 174.054 47.8862 174.24 47.3747 174.24C46.4602 174.24 45.8325 173.613 45.8325 172.597V170.551H46.4215V172.566C46.4215 173.295 46.8477 173.698 47.4832 173.698C47.9095 173.698 48.3512 173.473 48.6612 173.062V170.551ZM51.1098 171.14C51.443 170.714 51.9235 170.466 52.497 170.466V171.024C51.908 171.04 51.4275 171.311 51.1098 171.807V174.147H50.5208V170.551H51.1098V171.14ZM57.3173 168.877C58.5341 168.877 59.3478 169.575 59.3478 170.629C59.3478 171.722 58.5031 172.442 57.2398 172.442H56.0696V174.147H55.4573V168.877H57.3173ZM57.2941 171.877C58.1621 171.877 58.7433 171.381 58.7433 170.629C58.7433 169.916 58.1621 169.435 57.2941 169.435H56.0696V171.877H57.2941ZM62.0989 170.458C63.0134 170.458 63.6411 171.071 63.6411 172.086V174.147H63.0521V172.117C63.0521 171.388 62.6259 171.001 61.9904 171.001C61.5641 171.001 61.1224 171.218 60.8124 171.621V174.147H60.2234V168.645H60.8124V170.954C61.1456 170.637 61.5874 170.458 62.0989 170.458ZM66.4927 170.458C67.5854 170.458 68.3992 171.264 68.3992 172.349C68.3992 173.434 67.5854 174.24 66.4927 174.24C65.3922 174.24 64.5784 173.434 64.5784 172.349C64.5784 171.264 65.3922 170.458 66.4927 170.458ZM66.4927 173.698C67.2444 173.698 67.8024 173.124 67.8024 172.349C67.8024 171.574 67.2444 171.001 66.4927 171.001C65.7332 171.001 65.1674 171.574 65.1674 172.349C65.1674 173.124 65.7332 173.698 66.4927 173.698ZM71.7663 173.566L71.8515 174.109C71.557 174.209 71.309 174.24 71.092 174.24C70.2085 174.24 69.7823 173.752 69.7823 172.814V171.055H68.8445V170.551H69.7823V169.226H70.3713V170.551H71.7275V171.055H70.3713V172.814C70.3713 173.434 70.6348 173.69 71.1463 173.69C71.3478 173.69 71.5725 173.636 71.7663 173.566ZM74.2654 170.458C75.3581 170.458 76.1719 171.264 76.1719 172.349C76.1719 173.434 75.3581 174.24 74.2654 174.24C73.1649 174.24 72.3511 173.434 72.3511 172.349C72.3511 171.264 73.1649 170.458 74.2654 170.458ZM74.2654 173.698C75.0171 173.698 75.5751 173.124 75.5751 172.349C75.5751 171.574 75.0171 171.001 74.2654 171.001C73.5059 171.001 72.9401 171.574 72.9401 172.349C72.9401 173.124 73.5059 173.698 74.2654 173.698ZM80.1212 170.551H80.7102V174.326C80.7102 175.38 79.9894 176.023 78.9199 176.023C77.9279 176.023 77.2149 175.465 77.0909 174.667H77.6954C77.7962 175.155 78.2457 175.488 78.9199 175.488C79.6407 175.488 80.1212 175.054 80.1212 174.326V173.651C79.7879 173.946 79.3384 174.116 78.8192 174.116C77.7884 174.116 77.0057 173.295 77.0057 172.303C77.0057 171.241 77.7884 170.458 78.8192 170.458C79.3384 170.458 79.7879 170.629 80.1212 170.923V170.551ZM78.8967 173.597C79.3694 173.597 79.8189 173.403 80.1212 172.962V171.613C79.8189 171.171 79.3694 170.978 78.8967 170.978C78.1372 170.978 77.5947 171.543 77.5947 172.303C77.5947 172.993 78.1372 173.597 78.8967 173.597ZM82.5714 171.14C82.9047 170.714 83.3852 170.466 83.9587 170.466V171.024C83.3697 171.04 82.8892 171.311 82.5714 171.807V174.147H81.9824V170.551H82.5714V171.14ZM87.5987 170.551H88.1877V174.147H87.5987V173.775C87.2809 174.07 86.8469 174.24 86.3354 174.24C85.3047 174.24 84.4832 173.403 84.4832 172.349C84.4832 171.303 85.3047 170.458 86.3354 170.458C86.8469 170.458 87.2809 170.629 87.5987 170.923V170.551ZM86.4129 173.698C86.8857 173.698 87.3042 173.52 87.5987 173.086V171.613C87.3042 171.179 86.8857 171.001 86.4129 171.001C85.6534 171.001 85.0722 171.605 85.0722 172.349C85.0722 173.093 85.6534 173.698 86.4129 173.698ZM91.3122 170.466C92.343 170.466 93.1645 171.303 93.1645 172.349C93.1645 173.403 92.343 174.233 91.3122 174.233C90.8007 174.233 90.3667 174.062 90.049 173.768V175.945H89.46V170.551H90.049V170.931C90.3667 170.637 90.8007 170.466 91.3122 170.466ZM91.2347 173.713C91.9942 173.713 92.5755 173.093 92.5755 172.349C92.5755 171.605 91.9942 170.985 91.2347 170.985C90.762 170.985 90.3435 171.179 90.049 171.613V173.086C90.3435 173.52 90.762 173.713 91.2347 173.713ZM96.0884 170.458C97.0029 170.458 97.6306 171.071 97.6306 172.086V174.147H97.0416V172.117C97.0416 171.388 96.6154 171.001 95.9799 171.001C95.5536 171.001 95.1119 171.218 94.8019 171.621V174.147H94.2129V168.645H94.8019V170.954C95.1351 170.637 95.5769 170.458 96.0884 170.458ZM99.0183 173.016C99.1268 173.496 99.4988 173.752 100.158 173.752C100.716 173.752 101.095 173.543 101.095 173.179C101.095 172.876 100.855 172.698 100.506 172.636L99.6926 172.504C99.1036 172.404 98.6231 172.14 98.6231 171.528C98.6231 170.861 99.2121 170.458 100.08 170.458C100.832 170.458 101.576 170.745 101.646 171.598H101.095C101.033 171.148 100.654 170.939 100.08 170.939C99.5376 170.939 99.2121 171.148 99.2121 171.474C99.2121 171.737 99.3903 171.931 99.8786 172.016L100.592 172.132C101.111 172.218 101.661 172.45 101.661 173.14C101.661 173.845 101.026 174.24 100.142 174.24C99.2276 174.24 98.5766 173.861 98.4681 173.016H99.0183Z" fill="#E8E4DD"/>
<path d="M13.7278 182.357C14.5028 182.489 14.8903 182.992 14.8903 183.643C14.8903 184.504 14.1385 185.085 12.9683 185.085H10.7208V179.815H12.9063C13.968 179.815 14.619 180.334 14.619 181.148C14.619 181.729 14.2935 182.186 13.7278 182.357ZM12.8443 180.357H11.333V182.163H12.7668C13.5805 182.163 14.0378 181.799 14.0378 181.218C14.0378 180.691 13.5883 180.357 12.8443 180.357ZM12.945 184.542C13.7898 184.542 14.2858 184.132 14.2858 183.581C14.2858 183.008 13.7898 182.675 12.9605 182.675H11.333V184.542H12.945ZM17.5389 181.396C18.6936 181.396 19.4144 182.287 19.2981 183.465H16.2911C16.3609 184.132 16.8181 184.651 17.5699 184.651C18.0271 184.651 18.3759 184.488 18.5309 184.186H19.1896C18.9649 184.806 18.3449 185.178 17.5699 185.178C16.4616 185.178 15.6944 184.349 15.6944 183.287C15.6944 182.225 16.4539 181.396 17.5389 181.396ZM17.5389 181.907C16.8259 181.907 16.3841 182.411 16.2989 183.047H18.7091C18.6781 182.334 18.2209 181.907 17.5389 181.907ZM22.0959 184.635C22.6539 184.635 23.0724 184.333 23.1809 183.86H23.7932C23.6537 184.643 22.9639 185.178 22.0959 185.178C21.0032 185.178 20.2127 184.349 20.2127 183.287C20.2127 182.225 21.0032 181.396 22.0959 181.396C22.9639 181.396 23.6537 181.931 23.7932 182.721H23.1809C23.0724 182.248 22.6539 181.938 22.0959 181.938C21.3132 181.938 20.8017 182.543 20.8017 183.287C20.8017 184.039 21.3132 184.635 22.0959 184.635ZM26.5998 181.396C27.6926 181.396 28.5063 182.202 28.5063 183.287C28.5063 184.372 27.6926 185.178 26.5998 185.178C25.4993 185.178 24.6856 184.372 24.6856 183.287C24.6856 182.202 25.4993 181.396 26.5998 181.396ZM26.5998 184.635C27.3516 184.635 27.9096 184.062 27.9096 183.287C27.9096 182.512 27.3516 181.938 26.5998 181.938C25.8403 181.938 25.2746 182.512 25.2746 183.287C25.2746 184.062 25.8403 184.635 26.5998 184.635ZM33.8742 181.396C34.7887 181.396 35.3855 181.931 35.3855 182.961V185.085H34.7965V182.961C34.7965 182.248 34.4245 181.938 33.8355 181.938C33.4015 181.938 32.9985 182.117 32.7117 182.551C32.735 182.667 32.7427 182.791 32.7427 182.93V185.085H32.1537V182.93C32.1537 182.225 31.774 181.938 31.2237 181.938C30.7742 181.938 30.379 182.124 30.1 182.543V185.085H29.511V181.489H30.1V181.876C30.3945 181.574 30.7665 181.396 31.2857 181.396C31.836 181.396 32.2622 181.597 32.5102 181.993C32.859 181.613 33.3007 181.396 33.8742 181.396ZM38.1702 181.396C39.325 181.396 40.0457 182.287 39.9295 183.465H36.9225C36.9922 184.132 37.4495 184.651 38.2012 184.651C38.6585 184.651 39.0072 184.488 39.1622 184.186H39.821C39.5962 184.806 38.9762 185.178 38.2012 185.178C37.093 185.178 36.3257 184.349 36.3257 183.287C36.3257 182.225 37.0852 181.396 38.1702 181.396ZM38.1702 181.907C37.4572 181.907 37.0155 182.411 36.9302 183.047H39.3405C39.3095 182.334 38.8522 181.907 38.1702 181.907ZM45.0486 179.722C46.0871 179.722 46.9861 180.179 47.1179 181.264H46.5056C46.3894 180.636 45.9476 180.249 45.0874 180.249C44.3124 180.249 43.8086 180.598 43.8086 181.194C43.8086 181.659 44.1419 181.923 44.7696 182.047L45.6299 182.21C46.5754 182.396 47.1101 182.822 47.1101 183.597C47.1101 184.558 46.3196 185.178 45.1339 185.178C43.8706 185.178 43.0491 184.535 42.9329 183.395H43.5374C43.6614 184.186 44.2271 184.628 45.1649 184.628C45.9709 184.628 46.4824 184.263 46.4824 183.667C46.4824 183.248 46.1956 182.923 45.5291 182.806L44.5449 182.613C43.6071 182.434 43.1576 181.954 43.1576 181.233C43.1576 180.311 43.9171 179.722 45.0486 179.722ZM49.989 181.404C51.0197 181.404 51.8412 182.241 51.8412 183.287C51.8412 184.341 51.0197 185.17 49.989 185.17C49.4775 185.17 49.0435 185 48.7257 184.705V186.883H48.1367V181.489H48.7257V181.869C49.0435 181.574 49.4775 181.404 49.989 181.404ZM49.9115 184.651C50.671 184.651 51.2522 184.031 51.2522 183.287C51.2522 182.543 50.671 181.923 49.9115 181.923C49.4387 181.923 49.0202 182.117 48.7257 182.551V184.023C49.0202 184.457 49.4387 184.651 49.9115 184.651ZM55.857 181.489H56.446V185.085H55.857V184.713C55.5392 185.007 55.1052 185.178 54.5937 185.178C53.563 185.178 52.7415 184.341 52.7415 183.287C52.7415 182.241 53.563 181.396 54.5937 181.396C55.1052 181.396 55.5392 181.566 55.857 181.861V181.489ZM54.6712 184.635C55.144 184.635 55.5625 184.457 55.857 184.023V182.551C55.5625 182.117 55.144 181.938 54.6712 181.938C53.9117 181.938 53.3305 182.543 53.3305 183.287C53.3305 184.031 53.9117 184.635 54.6712 184.635ZM59.3777 184.635C59.9357 184.635 60.3542 184.333 60.4627 183.86H61.0749C60.9354 184.643 60.2457 185.178 59.3777 185.178C58.2849 185.178 57.4944 184.349 57.4944 183.287C57.4944 182.225 58.2849 181.396 59.3777 181.396C60.2457 181.396 60.9354 181.931 61.0749 182.721H60.4627C60.3542 182.248 59.9357 181.938 59.3777 181.938C58.5949 181.938 58.0834 182.543 58.0834 183.287C58.0834 184.039 58.5949 184.635 59.3777 184.635ZM63.8118 181.396C64.9666 181.396 65.6873 182.287 65.5711 183.465H62.5641C62.6338 184.132 63.0911 184.651 63.8428 184.651C64.3001 184.651 64.6488 184.488 64.8038 184.186H65.4626C65.2378 184.806 64.6178 185.178 63.8428 185.178C62.7346 185.178 61.9673 184.349 61.9673 183.287C61.9673 182.225 62.7268 181.396 63.8118 181.396ZM63.8118 181.907C63.0988 181.907 62.6571 182.411 62.5718 183.047H64.9821C64.9511 182.334 64.4938 181.907 63.8118 181.907Z" fill="#E8E4DD"/>
</g>
</g>
<defs>
<filter id="filter0_i_144_1578" x="0" y="-60" width="253" height="340" filterUnits="userSpaceOnUse" color-interpolation-filters="sRGB">
<feFlood flood-opacity="0" result="BackgroundImageFix"/>
<feBlend mode="normal" in="SourceGraphic" in2="BackgroundImageFix" result="shape"/>
<feColorMatrix in="SourceAlpha" type="matrix" values="0 0 0 0 0 0 0 0 0 0 0 0 0 0 0 0 0 0 127 0" result="hardAlpha"/>
<feOffset dy="-60"/>
<feGaussianBlur stdDeviation="31"/>
<feComposite in2="hardAlpha" operator="arithmetic" k2="-1" k3="1"/>
<feColorMatrix type="matrix" values="0 0 0 0 0 0 0 0 0 0 0 0 0 0 0 0 0 0 0.45 0"/>
<feBlend mode="normal" in2="shape" result="effect1_innerShadow_144_1578"/>
</filter>
<filter id="filter1_g_144_1578" x="-4" y="-4" width="261" height="288" filterUnits="userSpaceOnUse" color-interpolation-filters="sRGB">
<feFlood flood-opacity="0" result="BackgroundImageFix"/>
<feBlend mode="normal" in="SourceGraphic" in2="BackgroundImageFix" result="shape"/>
<feTurbulence type="fractalNoise" baseFrequency="0.15384615957736969 0.15384615957736969" numOctaves="3" seed="8583" />
<feDisplacementMap in="shape" scale="8" xChannelSelector="R" yChannelSelector="G" result="displacedImage" width="100%" height="100%" />
<feMerge result="effect1_texture_144_1578">
<feMergeNode in="displacedImage"/>
</feMerge>
</filter>
<radialGradient id="paint0_radial_144_1578" cx="0" cy="0" r="1" gradientUnits="userSpaceOnUse" gradientTransform="translate(127.934 104.616) scale(84.0659)">
<stop stop-color="#C8A96E" stop-opacity="0.1"/>
<stop offset="0.55" stop-color="#C8A96E" stop-opacity="0.02"/>
<stop offset="1" stop-color="#C8A96E" stop-opacity="0"/>
</radialGradient>
<radialGradient id="paint1_radial_144_1578" cx="0" cy="0" r="1" gradientUnits="userSpaceOnUse" gradientTransform="translate(127.934 104.616) scale(84.0659)">
<stop stop-color="#C8A96E" stop-opacity="0.04"/>
<stop offset="1" stop-color="#C8A96E" stop-opacity="0"/>
</radialGradient>
<radialGradient id="paint2_radial_144_1578" cx="0" cy="0" r="1" gradientUnits="userSpaceOnUse" gradientTransform="translate(127 140) scale(270)">
<stop stop-color="#C8A96E" stop-opacity="0.04"/>
<stop offset="1" stop-color="#C8A96E" stop-opacity="0"/>
</radialGradient>
<clipPath id="clip0_144_1578">
<rect width="253" height="280" rx="12" fill="white"/>
</clipPath>
</defs>
</svg>
